M48
METRIC,LZ,000.000
;FILE_FORMAT=3:3
;TYPE=PLATED
;Layer: PTH_Through
;EasyEDA v6.5.42, 2024-05-04 09:00:08
;1b880a871dba45ccba3123794a0e531b,10
;Gerber Generator version 0.2
;Holesize 1 = 0.701 mm
T01C0.701
;Holesize 2 = 0.900 mm
T02C0.900
;Holesize 3 = 0.901 mm
T03C0.901
;Holesize 4 = 0.915 mm
T04C0.915
;Holesize 5 = 0.966 mm
T05C0.966
;Holesize 6 = 1.000 mm
T06C1.000
;Holesize 7 = 1.101 mm
T07C1.101
;Holesize 8 = 1.200 mm
T08C1.200
;Holesize 9 = 1.501 mm
T09C1.501
%
G05
G90
T01
X141467Y-035306
X139965Y-035306
T02
X037592Y-021590
X045212Y-021590
X107569Y-034417
X115189Y-034417
X121920Y-034544
X129540Y-034544
X115697Y-042164
X123317Y-042164
X037338Y-000889
X044958Y-000889
X037592Y-011430
X045212Y-011430
T03
X095631Y000000
X095631Y002540
X095631Y005080
X095631Y007620
X095631Y010160
X095631Y012700
X095631Y015240
X095631Y017780
X095631Y020320
X095631Y022860
X095631Y025400
X095631Y027940
X095631Y030480
X095631Y033020
X095631Y035560
X070231Y035560
X070231Y033020
X070231Y030480
X070231Y027940
X070231Y025400
X070231Y022860
X070231Y020320
X070231Y017780
X070231Y015240
X070231Y012700
X070231Y010160
X070231Y007620
X070231Y005080
X070231Y002540
X070231Y000000
T04
X151003Y042799
X151003Y037719
X127381Y043053
X127381Y040513
X127381Y037973
X151003Y024257
X151003Y019177
X127381Y024511
X127381Y021971
X127381Y019431
X151257Y006731
X151257Y001651
X127635Y006985
X127635Y004445
X127635Y001905
X018161Y-032766
X020701Y-032766
X023241Y-032766
X152527Y-034290
X152527Y-041910
T05
X056134Y001905
X056134Y-000635
X055880Y-008763
X055880Y-011303
X055753Y-019050
X055753Y-021590
T06
X025654Y-003730G85X025654Y-006430
X019651Y-003730G85X019651Y-006430
X024354Y-009880G85X022154Y-009880
T07
X107696Y-013335
X107696Y-015875
X107696Y-018415
X107696Y-020955
T08
X025020Y043054
X040258Y043049
X037718Y043052
X035178Y043052
X032640Y043057
X030100Y043049
X027560Y043049
T09
X151638Y-018415
X151638Y-013437
M30
