G04 Layer: TopSilkscreenLayer*
G04 EasyEDA v6.5.42, 2024-05-04 09:00:08*
G04 1b880a871dba45ccba3123794a0e531b,10*
G04 Gerber Generator version 0.2*
G04 Scale: 100 percent, Rotated: No, Reflected: No *
G04 Dimensions in millimeters *
G04 leading zeros omitted , absolute positions ,4 integer and 5 decimal *
%FSLAX45Y45*%
%MOMM*%

%ADD10C,0.1524*%
%ADD11C,0.2032*%
%ADD12C,0.0800*%
%ADD13C,0.2540*%

%LPD*%
G36*
X13215112Y-1069848D02*
G01*
X13210082Y-1070152D01*
X13205206Y-1071067D01*
X13200583Y-1072591D01*
X13196163Y-1074775D01*
X13192048Y-1077671D01*
X13188238Y-1081227D01*
X13184784Y-1085494D01*
X13181634Y-1090472D01*
X13178891Y-1096213D01*
X13176554Y-1102715D01*
X13174624Y-1110030D01*
X13173201Y-1118108D01*
X13171576Y-1111351D01*
X13169544Y-1105255D01*
X13167156Y-1099870D01*
X13164413Y-1095146D01*
X13161365Y-1091031D01*
X13158012Y-1087526D01*
X13154456Y-1084580D01*
X13150646Y-1082243D01*
X13146684Y-1080465D01*
X13142569Y-1079195D01*
X13138353Y-1078484D01*
X13134086Y-1078230D01*
X13128244Y-1078636D01*
X13122757Y-1079804D01*
X13117626Y-1081786D01*
X13112851Y-1084478D01*
X13108533Y-1087983D01*
X13104672Y-1092250D01*
X13101319Y-1097229D01*
X13098475Y-1102969D01*
X13096240Y-1109421D01*
X13094563Y-1116584D01*
X13093547Y-1124508D01*
X13093192Y-1133094D01*
X13093192Y-1157478D01*
X13103098Y-1157478D01*
X13103098Y-1139952D01*
X13103301Y-1133652D01*
X13103910Y-1127861D01*
X13104926Y-1122680D01*
X13106349Y-1118057D01*
X13108228Y-1113993D01*
X13110565Y-1110488D01*
X13113410Y-1107541D01*
X13116661Y-1105103D01*
X13120471Y-1103223D01*
X13124738Y-1101902D01*
X13129513Y-1101090D01*
X13134848Y-1100836D01*
X13140436Y-1101140D01*
X13145465Y-1102004D01*
X13150037Y-1103426D01*
X13154050Y-1105509D01*
X13157606Y-1108151D01*
X13160654Y-1111453D01*
X13163194Y-1115364D01*
X13165277Y-1119886D01*
X13166851Y-1125067D01*
X13167969Y-1130858D01*
X13168680Y-1137361D01*
X13168884Y-1144524D01*
X13168884Y-1157986D01*
X13179298Y-1157986D01*
X13179298Y-1143508D01*
X13179551Y-1135227D01*
X13180313Y-1127760D01*
X13181533Y-1121054D01*
X13183311Y-1115110D01*
X13185546Y-1109980D01*
X13188289Y-1105560D01*
X13191540Y-1101902D01*
X13195300Y-1098905D01*
X13199567Y-1096619D01*
X13204291Y-1094994D01*
X13209574Y-1094028D01*
X13215366Y-1093724D01*
X13220852Y-1094079D01*
X13225932Y-1095044D01*
X13230504Y-1096721D01*
X13234669Y-1099007D01*
X13238378Y-1102004D01*
X13241578Y-1105611D01*
X13244322Y-1109929D01*
X13246607Y-1114856D01*
X13248386Y-1120394D01*
X13249656Y-1126642D01*
X13250418Y-1133500D01*
X13250672Y-1140968D01*
X13250672Y-1157478D01*
X13204291Y-1157986D01*
X13141299Y-1157935D01*
X13093192Y-1157478D01*
X13093192Y-1204468D01*
X13101828Y-1204468D01*
X13104368Y-1181100D01*
X13126415Y-1180896D01*
X13216229Y-1180896D01*
X13249656Y-1181100D01*
X13252196Y-1204468D01*
X13260832Y-1204468D01*
X13260832Y-1136142D01*
X13260578Y-1127506D01*
X13259816Y-1119581D01*
X13258596Y-1112316D01*
X13256920Y-1105662D01*
X13254837Y-1099616D01*
X13252399Y-1094181D01*
X13249605Y-1089355D01*
X13246557Y-1085088D01*
X13243204Y-1081379D01*
X13239648Y-1078230D01*
X13235838Y-1075588D01*
X13231876Y-1073505D01*
X13227812Y-1071880D01*
X13223646Y-1070762D01*
X13219379Y-1070051D01*
G37*
G36*
X13252957Y-1230122D02*
G01*
X13248132Y-1265428D01*
X13227964Y-1265631D01*
X13129260Y-1265682D01*
X13093192Y-1264920D01*
X13090652Y-1268222D01*
X13104113Y-1319784D01*
X13113004Y-1319784D01*
X13109701Y-1286256D01*
X13222935Y-1286357D01*
X13248132Y-1286764D01*
X13252957Y-1322578D01*
X13260832Y-1322578D01*
X13260832Y-1230122D01*
G37*
G36*
X13175742Y-1351534D02*
G01*
X13166648Y-1351737D01*
X13158165Y-1352296D01*
X13150189Y-1353210D01*
X13142823Y-1354429D01*
X13135965Y-1356004D01*
X13129666Y-1357833D01*
X13123824Y-1359966D01*
X13118541Y-1362303D01*
X13113715Y-1364945D01*
X13109397Y-1367739D01*
X13105536Y-1370787D01*
X13102132Y-1373987D01*
X13099135Y-1377340D01*
X13096646Y-1380794D01*
X13094512Y-1384452D01*
X13092836Y-1388160D01*
X13091515Y-1391920D01*
X13090601Y-1395780D01*
X13090042Y-1399692D01*
X13089890Y-1403604D01*
X13099796Y-1403604D01*
X13099999Y-1400759D01*
X13100608Y-1397965D01*
X13101624Y-1395222D01*
X13103199Y-1392529D01*
X13105282Y-1389938D01*
X13107974Y-1387500D01*
X13111226Y-1385163D01*
X13115188Y-1383030D01*
X13119862Y-1381048D01*
X13125246Y-1379270D01*
X13131444Y-1377696D01*
X13138454Y-1376375D01*
X13146379Y-1375308D01*
X13155218Y-1374546D01*
X13164972Y-1374038D01*
X13175742Y-1373886D01*
X13186867Y-1374038D01*
X13196976Y-1374546D01*
X13206120Y-1375308D01*
X13214299Y-1376375D01*
X13221563Y-1377696D01*
X13228015Y-1379270D01*
X13233603Y-1381048D01*
X13238429Y-1383030D01*
X13242544Y-1385163D01*
X13245998Y-1387500D01*
X13248741Y-1389938D01*
X13250926Y-1392529D01*
X13252551Y-1395222D01*
X13253669Y-1397965D01*
X13254278Y-1400759D01*
X13254482Y-1403604D01*
X13254278Y-1406601D01*
X13253669Y-1409496D01*
X13252551Y-1412392D01*
X13250976Y-1415135D01*
X13248792Y-1417828D01*
X13246049Y-1420368D01*
X13242645Y-1422755D01*
X13238530Y-1424990D01*
X13233704Y-1427022D01*
X13228116Y-1428851D01*
X13221716Y-1430426D01*
X13214400Y-1431798D01*
X13206222Y-1432864D01*
X13197078Y-1433677D01*
X13186918Y-1434185D01*
X13175742Y-1434338D01*
X13164972Y-1434185D01*
X13155218Y-1433677D01*
X13146379Y-1432864D01*
X13138454Y-1431798D01*
X13131444Y-1430426D01*
X13125246Y-1428851D01*
X13119862Y-1427022D01*
X13115188Y-1424990D01*
X13111226Y-1422755D01*
X13107974Y-1420368D01*
X13105282Y-1417828D01*
X13103199Y-1415135D01*
X13101624Y-1412392D01*
X13100608Y-1409496D01*
X13099999Y-1406601D01*
X13099796Y-1403604D01*
X13089890Y-1403604D01*
X13090042Y-1407617D01*
X13090601Y-1411630D01*
X13091515Y-1415542D01*
X13092836Y-1419453D01*
X13094512Y-1423212D01*
X13096646Y-1426870D01*
X13099135Y-1430426D01*
X13102132Y-1433830D01*
X13105536Y-1437081D01*
X13109397Y-1440129D01*
X13113715Y-1442974D01*
X13118541Y-1445615D01*
X13123824Y-1448003D01*
X13129666Y-1450136D01*
X13135965Y-1451965D01*
X13142823Y-1453540D01*
X13150189Y-1454759D01*
X13158165Y-1455674D01*
X13166648Y-1456232D01*
X13175742Y-1456436D01*
X13185140Y-1456232D01*
X13193979Y-1455674D01*
X13202157Y-1454759D01*
X13209828Y-1453540D01*
X13216890Y-1451965D01*
X13223392Y-1450136D01*
X13229386Y-1448003D01*
X13234822Y-1445615D01*
X13239800Y-1442974D01*
X13244220Y-1440129D01*
X13248182Y-1437081D01*
X13251688Y-1433830D01*
X13254685Y-1430426D01*
X13257276Y-1426870D01*
X13259409Y-1423212D01*
X13261136Y-1419453D01*
X13262457Y-1415542D01*
X13263422Y-1411630D01*
X13263930Y-1407617D01*
X13264134Y-1403604D01*
X13263930Y-1399692D01*
X13263422Y-1395780D01*
X13262457Y-1391920D01*
X13261136Y-1388160D01*
X13259409Y-1384452D01*
X13257276Y-1380794D01*
X13254685Y-1377340D01*
X13251688Y-1373987D01*
X13248182Y-1370787D01*
X13244220Y-1367739D01*
X13239800Y-1364945D01*
X13234822Y-1362303D01*
X13229386Y-1359966D01*
X13223392Y-1357833D01*
X13216890Y-1356004D01*
X13209828Y-1354429D01*
X13202157Y-1353210D01*
X13193979Y-1352296D01*
X13185140Y-1351737D01*
G37*
G36*
X13252957Y-1481074D02*
G01*
X13248132Y-1516380D01*
X13212978Y-1516888D01*
X13129260Y-1516888D01*
X13093192Y-1515872D01*
X13090652Y-1519428D01*
X13104113Y-1570736D01*
X13113004Y-1570736D01*
X13109701Y-1537462D01*
X13248132Y-1537716D01*
X13252957Y-1573530D01*
X13260832Y-1573530D01*
X13260832Y-1481074D01*
G37*
G36*
X13137896Y-1597152D02*
G01*
X13093192Y-1598930D01*
X13093192Y-1736343D01*
X13137896Y-1738375D01*
X13137896Y-1725675D01*
X13104113Y-1718818D01*
X13104113Y-1679448D01*
X13211149Y-1679193D01*
X13249401Y-1679448D01*
X13252196Y-1705356D01*
X13260832Y-1705356D01*
X13260832Y-1629918D01*
X13252196Y-1629918D01*
X13249401Y-1655825D01*
X13216382Y-1656283D01*
X13142976Y-1656283D01*
X13104113Y-1655825D01*
X13104113Y-1616456D01*
X13137896Y-1609344D01*
G37*
G36*
X13142976Y-1751584D02*
G01*
X13137540Y-1751838D01*
X13132307Y-1752549D01*
X13127329Y-1753768D01*
X13122656Y-1755495D01*
X13118236Y-1757680D01*
X13114172Y-1760372D01*
X13110362Y-1763572D01*
X13106958Y-1767230D01*
X13103860Y-1771396D01*
X13101116Y-1776069D01*
X13098729Y-1781200D01*
X13096798Y-1786839D01*
X13095224Y-1792986D01*
X13094106Y-1799589D01*
X13093446Y-1806702D01*
X13093192Y-1814322D01*
X13093192Y-1834642D01*
X13103098Y-1834642D01*
X13103098Y-1818639D01*
X13103402Y-1811477D01*
X13104266Y-1805025D01*
X13105739Y-1799234D01*
X13107771Y-1794052D01*
X13110362Y-1789531D01*
X13113512Y-1785670D01*
X13117169Y-1782419D01*
X13121335Y-1779828D01*
X13126008Y-1777796D01*
X13131190Y-1776323D01*
X13136880Y-1775510D01*
X13142976Y-1775206D01*
X13148868Y-1775460D01*
X13154406Y-1776272D01*
X13159536Y-1777644D01*
X13164312Y-1779574D01*
X13168630Y-1782165D01*
X13172490Y-1785315D01*
X13175843Y-1789175D01*
X13178637Y-1793697D01*
X13180872Y-1798878D01*
X13182498Y-1804822D01*
X13183514Y-1811477D01*
X13183869Y-1818893D01*
X13183869Y-1834896D01*
X13093192Y-1834642D01*
X13093192Y-1881632D01*
X13101828Y-1881632D01*
X13104368Y-1858264D01*
X13143077Y-1857806D01*
X13216686Y-1857806D01*
X13249656Y-1858264D01*
X13252196Y-1881632D01*
X13260832Y-1881632D01*
X13260832Y-1810766D01*
X13252196Y-1810766D01*
X13249401Y-1834642D01*
X13193776Y-1834896D01*
X13193776Y-1821688D01*
X13193522Y-1812594D01*
X13192709Y-1804162D01*
X13191439Y-1796440D01*
X13189712Y-1789430D01*
X13187578Y-1783029D01*
X13184987Y-1777288D01*
X13182041Y-1772157D01*
X13178739Y-1767687D01*
X13175132Y-1763775D01*
X13171220Y-1760423D01*
X13167004Y-1757680D01*
X13162584Y-1755444D01*
X13157962Y-1753717D01*
X13153085Y-1752498D01*
X13148106Y-1751838D01*
G37*
G36*
X13093192Y-1904238D02*
G01*
X13093192Y-1952498D01*
X13232130Y-2006600D01*
X13093192Y-2063242D01*
X13093192Y-2108962D01*
X13101828Y-2108962D01*
X13104621Y-2086102D01*
X13248894Y-2086356D01*
X13252196Y-2108962D01*
X13260832Y-2108962D01*
X13260832Y-2052828D01*
X13252196Y-2052828D01*
X13248894Y-2074672D01*
X13167918Y-2074722D01*
X13117322Y-2075942D01*
X13260832Y-2017522D01*
X13260832Y-2006600D01*
X13116813Y-1950212D01*
X13216890Y-1950516D01*
X13249656Y-1950974D01*
X13252196Y-1972564D01*
X13260832Y-1972564D01*
X13260832Y-1904492D01*
X13252196Y-1904492D01*
X13249656Y-1927606D01*
X13205358Y-1928114D01*
X13120827Y-1927910D01*
X13104368Y-1927606D01*
X13101828Y-1904238D01*
G37*
G36*
X13215619Y-2123948D02*
G01*
X13215619Y-2137156D01*
X13250163Y-2145284D01*
X13250163Y-2225294D01*
X13101828Y-2129028D01*
X13093192Y-2129028D01*
X13093192Y-2246122D01*
X13137896Y-2248662D01*
X13137896Y-2234946D01*
X13104113Y-2227326D01*
X13104113Y-2154936D01*
X13252450Y-2251202D01*
X13260832Y-2251202D01*
X13260832Y-2125472D01*
G37*
D10*
X14142933Y-3268888D02*
G01*
X14137599Y-3258474D01*
X14127185Y-3248060D01*
X14117025Y-3242980D01*
X14096197Y-3242980D01*
X14085783Y-3248060D01*
X14075369Y-3258474D01*
X14070035Y-3268888D01*
X14064955Y-3284636D01*
X14064955Y-3310544D01*
X14070035Y-3326038D01*
X14075369Y-3336452D01*
X14085783Y-3346866D01*
X14096197Y-3351946D01*
X14117025Y-3351946D01*
X14127185Y-3346866D01*
X14137599Y-3336452D01*
X14142933Y-3326038D01*
X14182303Y-3268888D02*
G01*
X14182303Y-3263808D01*
X14187637Y-3253394D01*
X14192717Y-3248060D01*
X14203131Y-3242980D01*
X14223959Y-3242980D01*
X14234373Y-3248060D01*
X14239453Y-3253394D01*
X14244787Y-3263808D01*
X14244787Y-3274222D01*
X14239453Y-3284636D01*
X14229039Y-3300130D01*
X14177223Y-3351946D01*
X14249867Y-3351946D01*
X5588000Y442518D02*
G01*
X5588000Y333552D01*
X5588000Y333552D02*
G01*
X5650229Y333552D01*
X5684520Y442518D02*
G01*
X5684520Y333552D01*
X5684520Y442518D02*
G01*
X5752084Y442518D01*
X5684520Y390702D02*
G01*
X5726175Y390702D01*
X5684520Y333552D02*
G01*
X5752084Y333552D01*
X5786374Y442518D02*
G01*
X5786374Y333552D01*
X5786374Y442518D02*
G01*
X5822950Y442518D01*
X5838443Y437438D01*
X5848858Y427024D01*
X5853938Y416610D01*
X5859272Y400862D01*
X5859272Y374954D01*
X5853938Y359460D01*
X5848858Y349046D01*
X5838443Y338632D01*
X5822950Y333552D01*
X5786374Y333552D01*
X5893561Y421690D02*
G01*
X5903975Y427024D01*
X5919470Y442518D01*
X5919470Y333552D01*
X5562600Y-624281D02*
G01*
X5562600Y-733247D01*
X5562600Y-733247D02*
G01*
X5624829Y-733247D01*
X5659120Y-624281D02*
G01*
X5659120Y-733247D01*
X5659120Y-624281D02*
G01*
X5726684Y-624281D01*
X5659120Y-676097D02*
G01*
X5700775Y-676097D01*
X5659120Y-733247D02*
G01*
X5726684Y-733247D01*
X5760974Y-624281D02*
G01*
X5760974Y-733247D01*
X5760974Y-624281D02*
G01*
X5797550Y-624281D01*
X5813043Y-629361D01*
X5823458Y-639775D01*
X5828538Y-650189D01*
X5833872Y-665937D01*
X5833872Y-691845D01*
X5828538Y-707339D01*
X5823458Y-717753D01*
X5813043Y-728167D01*
X5797550Y-733247D01*
X5760974Y-733247D01*
X5873241Y-650189D02*
G01*
X5873241Y-645109D01*
X5878575Y-634695D01*
X5883656Y-629361D01*
X5894070Y-624281D01*
X5914897Y-624281D01*
X5925311Y-629361D01*
X5930391Y-634695D01*
X5935725Y-645109D01*
X5935725Y-655523D01*
X5930391Y-665937D01*
X5919977Y-681431D01*
X5868161Y-733247D01*
X5940806Y-733247D01*
X5549900Y-1652981D02*
G01*
X5549900Y-1761947D01*
X5549900Y-1761947D02*
G01*
X5612129Y-1761947D01*
X5646420Y-1652981D02*
G01*
X5646420Y-1761947D01*
X5646420Y-1652981D02*
G01*
X5713984Y-1652981D01*
X5646420Y-1704797D02*
G01*
X5688075Y-1704797D01*
X5646420Y-1761947D02*
G01*
X5713984Y-1761947D01*
X5748274Y-1652981D02*
G01*
X5748274Y-1761947D01*
X5748274Y-1652981D02*
G01*
X5784850Y-1652981D01*
X5800343Y-1658061D01*
X5810758Y-1668475D01*
X5815838Y-1678889D01*
X5821172Y-1694637D01*
X5821172Y-1720545D01*
X5815838Y-1736039D01*
X5810758Y-1746453D01*
X5800343Y-1756867D01*
X5784850Y-1761947D01*
X5748274Y-1761947D01*
X5865875Y-1652981D02*
G01*
X5923025Y-1652981D01*
X5891784Y-1694637D01*
X5907277Y-1694637D01*
X5917691Y-1699717D01*
X5923025Y-1704797D01*
X5928106Y-1720545D01*
X5928106Y-1730959D01*
X5923025Y-1746453D01*
X5912611Y-1756867D01*
X5896863Y-1761947D01*
X5881370Y-1761947D01*
X5865875Y-1756867D01*
X5860541Y-1751787D01*
X5855461Y-1741373D01*
X4140200Y-1916684D02*
G01*
X4140200Y-2025650D01*
X4140200Y-1916684D02*
G01*
X4186936Y-1916684D01*
X4202429Y-1921763D01*
X4207763Y-1927097D01*
X4212843Y-1937512D01*
X4212843Y-1947926D01*
X4207763Y-1958339D01*
X4202429Y-1963420D01*
X4186936Y-1968500D01*
X4140200Y-1968500D01*
X4176522Y-1968500D02*
G01*
X4212843Y-2025650D01*
X4247134Y-1937512D02*
G01*
X4257547Y-1932178D01*
X4273295Y-1916684D01*
X4273295Y-2025650D01*
X11137900Y-3199384D02*
G01*
X11137900Y-3308350D01*
X11137900Y-3199384D02*
G01*
X11184636Y-3199384D01*
X11200129Y-3204463D01*
X11205463Y-3209797D01*
X11210543Y-3220212D01*
X11210543Y-3230626D01*
X11205463Y-3241039D01*
X11200129Y-3246120D01*
X11184636Y-3251200D01*
X11137900Y-3251200D01*
X11174222Y-3251200D02*
G01*
X11210543Y-3308350D01*
X11250168Y-3225292D02*
G01*
X11250168Y-3220212D01*
X11255247Y-3209797D01*
X11260581Y-3204463D01*
X11270995Y-3199384D01*
X11291570Y-3199384D01*
X11301984Y-3204463D01*
X11307318Y-3209797D01*
X11312397Y-3220212D01*
X11312397Y-3230626D01*
X11307318Y-3241039D01*
X11296904Y-3256534D01*
X11244834Y-3308350D01*
X11317731Y-3308350D01*
X12573000Y-3212084D02*
G01*
X12573000Y-3321050D01*
X12573000Y-3212084D02*
G01*
X12619736Y-3212084D01*
X12635229Y-3217163D01*
X12640563Y-3222497D01*
X12645643Y-3232912D01*
X12645643Y-3243326D01*
X12640563Y-3253739D01*
X12635229Y-3258820D01*
X12619736Y-3263900D01*
X12573000Y-3263900D01*
X12609322Y-3263900D02*
G01*
X12645643Y-3321050D01*
X12690347Y-3212084D02*
G01*
X12747497Y-3212084D01*
X12716509Y-3253739D01*
X12732004Y-3253739D01*
X12742418Y-3258820D01*
X12747497Y-3263900D01*
X12752831Y-3279647D01*
X12752831Y-3290062D01*
X12747497Y-3305555D01*
X12737084Y-3315970D01*
X12721590Y-3321050D01*
X12706095Y-3321050D01*
X12690347Y-3315970D01*
X12685268Y-3310889D01*
X12679934Y-3300476D01*
X11950700Y-3974084D02*
G01*
X11950700Y-4083050D01*
X11950700Y-3974084D02*
G01*
X11997436Y-3974084D01*
X12012929Y-3979163D01*
X12018263Y-3984497D01*
X12023343Y-3994912D01*
X12023343Y-4005326D01*
X12018263Y-4015739D01*
X12012929Y-4020820D01*
X11997436Y-4025900D01*
X11950700Y-4025900D01*
X11987022Y-4025900D02*
G01*
X12023343Y-4083050D01*
X12109704Y-3974084D02*
G01*
X12057634Y-4046728D01*
X12135611Y-4046728D01*
X12109704Y-3974084D02*
G01*
X12109704Y-4083050D01*
X4114800Y153415D02*
G01*
X4114800Y44450D01*
X4114800Y153415D02*
G01*
X4161536Y153415D01*
X4177029Y148336D01*
X4182363Y143002D01*
X4187443Y132587D01*
X4187443Y122173D01*
X4182363Y111760D01*
X4177029Y106679D01*
X4161536Y101600D01*
X4114800Y101600D01*
X4151122Y101600D02*
G01*
X4187443Y44450D01*
X4284218Y153415D02*
G01*
X4232147Y153415D01*
X4227068Y106679D01*
X4232147Y111760D01*
X4247895Y117094D01*
X4263390Y117094D01*
X4278884Y111760D01*
X4289297Y101600D01*
X4294631Y85852D01*
X4294631Y75437D01*
X4289297Y59944D01*
X4278884Y49529D01*
X4263390Y44450D01*
X4247895Y44450D01*
X4232147Y49529D01*
X4227068Y54610D01*
X4221734Y65023D01*
X4140200Y-900684D02*
G01*
X4140200Y-1009650D01*
X4140200Y-900684D02*
G01*
X4186936Y-900684D01*
X4202429Y-905763D01*
X4207763Y-911097D01*
X4212843Y-921512D01*
X4212843Y-931926D01*
X4207763Y-942339D01*
X4202429Y-947420D01*
X4186936Y-952500D01*
X4140200Y-952500D01*
X4176522Y-952500D02*
G01*
X4212843Y-1009650D01*
X4309618Y-916178D02*
G01*
X4304284Y-905763D01*
X4288790Y-900684D01*
X4278375Y-900684D01*
X4262881Y-905763D01*
X4252468Y-921512D01*
X4247134Y-947420D01*
X4247134Y-973328D01*
X4252468Y-994155D01*
X4262881Y-1004570D01*
X4278375Y-1009650D01*
X4283709Y-1009650D01*
X4299204Y-1004570D01*
X4309618Y-994155D01*
X4314697Y-978662D01*
X4314697Y-973328D01*
X4309618Y-957834D01*
X4299204Y-947420D01*
X4283709Y-942339D01*
X4278375Y-942339D01*
X4262881Y-947420D01*
X4252468Y-957834D01*
X4247134Y-973328D01*
X8293100Y4788915D02*
G01*
X8293100Y4710937D01*
X8298179Y4695444D01*
X8308593Y4685029D01*
X8324341Y4679950D01*
X8334756Y4679950D01*
X8350250Y4685029D01*
X8360663Y4695444D01*
X8365743Y4710937D01*
X8365743Y4788915D01*
X8400034Y4768087D02*
G01*
X8410447Y4773421D01*
X8426195Y4788915D01*
X8426195Y4679950D01*
D11*
X8699502Y4092955D02*
G01*
X8699502Y4286757D01*
X8699502Y4092955D02*
G01*
X8625588Y4286757D01*
X8551674Y4092955D02*
G01*
X8625588Y4286757D01*
X8551674Y4092955D02*
G01*
X8551674Y4286757D01*
X8490714Y4092955D02*
G01*
X8490714Y4286757D01*
X8291324Y4138929D02*
G01*
X8300468Y4120642D01*
X8319010Y4102100D01*
X8337552Y4092955D01*
X8374382Y4092955D01*
X8392924Y4102100D01*
X8411212Y4120642D01*
X8420610Y4138929D01*
X8429754Y4166870D01*
X8429754Y4212844D01*
X8420610Y4240529D01*
X8411212Y4259071D01*
X8392924Y4277613D01*
X8374382Y4286757D01*
X8337552Y4286757D01*
X8319010Y4277613D01*
X8300468Y4259071D01*
X8291324Y4240529D01*
X8230364Y4092955D02*
G01*
X8230364Y4286757D01*
X8230364Y4092955D02*
G01*
X8147052Y4092955D01*
X8119366Y4102100D01*
X8110222Y4111244D01*
X8101078Y4129786D01*
X8101078Y4148328D01*
X8110222Y4166870D01*
X8119366Y4176013D01*
X8147052Y4185157D01*
X8230364Y4185157D01*
X8165594Y4185157D02*
G01*
X8101078Y4286757D01*
X7984492Y4092955D02*
G01*
X8003034Y4102100D01*
X8021576Y4120642D01*
X8030720Y4138929D01*
X8040118Y4166870D01*
X8040118Y4212844D01*
X8030720Y4240529D01*
X8021576Y4259071D01*
X8003034Y4277613D01*
X7984492Y4286757D01*
X7947662Y4286757D01*
X7929120Y4277613D01*
X7910832Y4259071D01*
X7901434Y4240529D01*
X7892290Y4212844D01*
X7892290Y4166870D01*
X7901434Y4138929D01*
X7910832Y4120642D01*
X7929120Y4102100D01*
X7947662Y4092955D01*
X7984492Y4092955D01*
X8559800Y4346955D02*
G01*
X8559800Y4485386D01*
X8550656Y4513071D01*
X8532113Y4531613D01*
X8504427Y4540757D01*
X8485886Y4540757D01*
X8458200Y4531613D01*
X8439658Y4513071D01*
X8430513Y4485386D01*
X8430513Y4346955D01*
X8240268Y4374642D02*
G01*
X8258809Y4356100D01*
X8286495Y4346955D01*
X8323325Y4346955D01*
X8351011Y4356100D01*
X8369554Y4374642D01*
X8369554Y4392929D01*
X8360409Y4411471D01*
X8351011Y4420870D01*
X8332470Y4430013D01*
X8277097Y4448555D01*
X8258809Y4457700D01*
X8249411Y4466844D01*
X8240268Y4485386D01*
X8240268Y4513071D01*
X8258809Y4531613D01*
X8286495Y4540757D01*
X8323325Y4540757D01*
X8351011Y4531613D01*
X8369554Y4513071D01*
X8179308Y4346955D02*
G01*
X8179308Y4540757D01*
X8179308Y4346955D02*
G01*
X8096250Y4346955D01*
X8068309Y4356100D01*
X8059165Y4365244D01*
X8050022Y4383786D01*
X8050022Y4402328D01*
X8059165Y4420870D01*
X8068309Y4430013D01*
X8096250Y4439157D01*
X8179308Y4439157D02*
G01*
X8096250Y4439157D01*
X8068309Y4448555D01*
X8059165Y4457700D01*
X8050022Y4476242D01*
X8050022Y4503928D01*
X8059165Y4522470D01*
X8068309Y4531613D01*
X8096250Y4540757D01*
X8179308Y4540757D01*
D10*
X13106400Y-2769615D02*
G01*
X13106400Y-2691637D01*
X13101320Y-2676144D01*
X13090906Y-2665729D01*
X13075158Y-2660650D01*
X13064743Y-2660650D01*
X13049250Y-2665729D01*
X13038836Y-2676144D01*
X13033756Y-2691637D01*
X13033756Y-2769615D01*
X12994131Y-2743707D02*
G01*
X12994131Y-2748787D01*
X12989052Y-2759202D01*
X12983718Y-2764536D01*
X12973304Y-2769615D01*
X12952729Y-2769615D01*
X12942315Y-2764536D01*
X12936981Y-2759202D01*
X12931902Y-2748787D01*
X12931902Y-2738373D01*
X12936981Y-2727960D01*
X12947395Y-2712465D01*
X12999465Y-2660650D01*
X12926568Y-2660650D01*
D11*
X11251438Y-1350263D02*
G01*
X11258295Y-1363979D01*
X11272011Y-1377442D01*
X11285727Y-1384300D01*
X11312906Y-1384300D01*
X11326622Y-1377442D01*
X11340084Y-1363979D01*
X11346941Y-1350263D01*
X11353800Y-1329689D01*
X11353800Y-1295654D01*
X11346941Y-1275334D01*
X11340084Y-1261618D01*
X11326622Y-1247902D01*
X11312906Y-1241044D01*
X11285727Y-1241044D01*
X11272011Y-1247902D01*
X11258295Y-1261618D01*
X11251438Y-1275334D01*
X11251438Y-1295654D01*
X11285727Y-1295654D02*
G01*
X11251438Y-1295654D01*
X11206479Y-1336547D02*
G01*
X11206479Y-1241044D01*
X11206479Y-1309370D02*
G01*
X11186159Y-1329689D01*
X11172443Y-1336547D01*
X11151870Y-1336547D01*
X11138408Y-1329689D01*
X11131550Y-1309370D01*
X11131550Y-1241044D01*
X11004804Y-1384300D02*
G01*
X11004804Y-1241044D01*
X11004804Y-1316228D02*
G01*
X11018265Y-1329689D01*
X11031981Y-1336547D01*
X11052556Y-1336547D01*
X11066018Y-1329689D01*
X11079734Y-1316228D01*
X11086591Y-1295654D01*
X11086591Y-1281937D01*
X11079734Y-1261618D01*
X11066018Y-1247902D01*
X11052556Y-1241044D01*
X11031981Y-1241044D01*
X11018265Y-1247902D01*
X11004804Y-1261618D01*
X11251438Y-1635252D02*
G01*
X11258295Y-1648968D01*
X11272011Y-1662429D01*
X11285727Y-1669287D01*
X11312906Y-1669287D01*
X11326622Y-1662429D01*
X11340084Y-1648968D01*
X11346941Y-1635252D01*
X11353800Y-1614678D01*
X11353800Y-1580642D01*
X11346941Y-1560321D01*
X11340084Y-1546605D01*
X11326622Y-1532889D01*
X11312906Y-1526031D01*
X11285727Y-1526031D01*
X11272011Y-1532889D01*
X11258295Y-1546605D01*
X11251438Y-1560321D01*
X11251438Y-1580642D01*
X11285727Y-1580642D02*
G01*
X11251438Y-1580642D01*
X11206479Y-1621536D02*
G01*
X11206479Y-1526031D01*
X11206479Y-1594357D02*
G01*
X11186159Y-1614678D01*
X11172443Y-1621536D01*
X11151870Y-1621536D01*
X11138408Y-1614678D01*
X11131550Y-1594357D01*
X11131550Y-1526031D01*
X11004804Y-1669287D02*
G01*
X11004804Y-1526031D01*
X11004804Y-1601215D02*
G01*
X11018265Y-1614678D01*
X11031981Y-1621536D01*
X11052556Y-1621536D01*
X11066018Y-1614678D01*
X11079734Y-1601215D01*
X11086591Y-1580642D01*
X11086591Y-1566926D01*
X11079734Y-1546605D01*
X11066018Y-1532889D01*
X11052556Y-1526031D01*
X11031981Y-1526031D01*
X11018265Y-1532889D01*
X11004804Y-1546605D01*
X11312906Y-1923287D02*
G01*
X11326622Y-1916429D01*
X11340084Y-1902968D01*
X11346941Y-1889252D01*
X11353800Y-1868678D01*
X11353800Y-1834642D01*
X11346941Y-1814321D01*
X11340084Y-1800605D01*
X11326622Y-1786889D01*
X11312906Y-1780031D01*
X11285727Y-1780031D01*
X11272011Y-1786889D01*
X11258295Y-1800605D01*
X11251438Y-1814321D01*
X11244834Y-1834642D01*
X11244834Y-1868678D01*
X11251438Y-1889252D01*
X11258295Y-1902968D01*
X11272011Y-1916429D01*
X11285727Y-1923287D01*
X11312906Y-1923287D01*
X11199622Y-1875536D02*
G01*
X11199622Y-1807463D01*
X11193018Y-1786889D01*
X11179302Y-1780031D01*
X11158727Y-1780031D01*
X11145265Y-1786889D01*
X11124691Y-1807463D01*
X11124691Y-1875536D02*
G01*
X11124691Y-1780031D01*
X11059159Y-1923287D02*
G01*
X11059159Y-1807463D01*
X11052556Y-1786889D01*
X11038840Y-1780031D01*
X11025124Y-1780031D01*
X11079734Y-1875536D02*
G01*
X11031981Y-1875536D01*
X11353800Y-2177287D02*
G01*
X11299190Y-2034031D01*
X11244834Y-2177287D02*
G01*
X11299190Y-2034031D01*
X11117834Y-2109215D02*
G01*
X11131550Y-2122678D01*
X11145265Y-2129536D01*
X11165586Y-2129536D01*
X11179302Y-2122678D01*
X11193018Y-2109215D01*
X11199622Y-2088642D01*
X11199622Y-2074926D01*
X11193018Y-2054605D01*
X11179302Y-2040889D01*
X11165586Y-2034031D01*
X11145265Y-2034031D01*
X11131550Y-2040889D01*
X11117834Y-2054605D01*
X10991088Y-2109215D02*
G01*
X11004804Y-2122678D01*
X11018265Y-2129536D01*
X11038840Y-2129536D01*
X11052556Y-2122678D01*
X11066018Y-2109215D01*
X11072875Y-2088642D01*
X11072875Y-2074926D01*
X11066018Y-2054605D01*
X11052556Y-2040889D01*
X11038840Y-2034031D01*
X11018265Y-2034031D01*
X11004804Y-2040889D01*
X10991088Y-2054605D01*
X14528800Y-1384300D02*
G01*
X14528800Y-1241044D01*
X14528800Y-1384300D02*
G01*
X14433295Y-1241044D01*
X14433295Y-1384300D02*
G01*
X14433295Y-1241044D01*
X14528800Y-1999487D02*
G01*
X14528800Y-1856231D01*
X14528800Y-1856231D02*
G01*
X14447011Y-1856231D01*
D10*
X15672816Y4051300D02*
G01*
X15594838Y4051300D01*
X15579343Y4046220D01*
X15568929Y4035805D01*
X15563850Y4020057D01*
X15563850Y4009644D01*
X15568929Y3994150D01*
X15579343Y3983736D01*
X15594838Y3978655D01*
X15672816Y3978655D01*
X15672816Y3933952D02*
G01*
X15672816Y3876802D01*
X15631159Y3907789D01*
X15631159Y3892295D01*
X15626079Y3881881D01*
X15621000Y3876802D01*
X15605252Y3871468D01*
X15594838Y3871468D01*
X15579343Y3876802D01*
X15568929Y3887215D01*
X15563850Y3902710D01*
X15563850Y3918204D01*
X15568929Y3933952D01*
X15574009Y3939031D01*
X15584424Y3944365D01*
D11*
X12913611Y4381500D02*
G01*
X12959839Y4260087D01*
X13006067Y4381500D02*
G01*
X12959839Y4260087D01*
X13113255Y4323587D02*
G01*
X13101825Y4335271D01*
X13090141Y4341113D01*
X13072869Y4341113D01*
X13061439Y4335271D01*
X13049755Y4323587D01*
X13044167Y4306315D01*
X13044167Y4294886D01*
X13049755Y4277613D01*
X13061439Y4265929D01*
X13072869Y4260087D01*
X13090141Y4260087D01*
X13101825Y4265929D01*
X13113255Y4277613D01*
X13220697Y4323587D02*
G01*
X13209267Y4335271D01*
X13197583Y4341113D01*
X13180311Y4341113D01*
X13168881Y4335271D01*
X13157197Y4323587D01*
X13151355Y4306315D01*
X13151355Y4294886D01*
X13157197Y4277613D01*
X13168881Y4265929D01*
X13180311Y4260087D01*
X13197583Y4260087D01*
X13209267Y4265929D01*
X13220697Y4277613D01*
X12951713Y4127500D02*
G01*
X12940284Y4121657D01*
X12928600Y4110228D01*
X12923011Y4098544D01*
X12917170Y4081271D01*
X12917170Y4052315D01*
X12923011Y4035044D01*
X12928600Y4023613D01*
X12940284Y4011929D01*
X12951713Y4006087D01*
X12974827Y4006087D01*
X12986511Y4011929D01*
X12997941Y4023613D01*
X13003784Y4035044D01*
X13009625Y4052315D01*
X13009625Y4081271D01*
X13003784Y4098544D01*
X12997941Y4110228D01*
X12986511Y4121657D01*
X12974827Y4127500D01*
X12951713Y4127500D01*
X13047725Y4087113D02*
G01*
X13047725Y4029202D01*
X13053313Y4011929D01*
X13064997Y4006087D01*
X13082270Y4006087D01*
X13093700Y4011929D01*
X13111225Y4029202D01*
X13111225Y4087113D02*
G01*
X13111225Y4006087D01*
X13166597Y4127500D02*
G01*
X13166597Y4029202D01*
X13172440Y4011929D01*
X13183870Y4006087D01*
X13195300Y4006087D01*
X13149325Y4087113D02*
G01*
X13189711Y4087113D01*
X12986258Y3819144D02*
G01*
X12980415Y3830828D01*
X12968986Y3842257D01*
X12957302Y3848100D01*
X12934188Y3848100D01*
X12922758Y3842257D01*
X12911074Y3830828D01*
X12905486Y3819144D01*
X12899643Y3801871D01*
X12899643Y3772915D01*
X12905486Y3755644D01*
X12911074Y3744213D01*
X12922758Y3732529D01*
X12934188Y3726687D01*
X12957302Y3726687D01*
X12968986Y3732529D01*
X12980415Y3744213D01*
X12986258Y3755644D01*
X12986258Y3772915D01*
X12957302Y3772915D02*
G01*
X12986258Y3772915D01*
X13024358Y3807713D02*
G01*
X13024358Y3726687D01*
X13024358Y3784600D02*
G01*
X13041629Y3801871D01*
X13053313Y3807713D01*
X13070586Y3807713D01*
X13082015Y3801871D01*
X13087858Y3784600D01*
X13087858Y3726687D01*
X13195300Y3848100D02*
G01*
X13195300Y3726687D01*
X13195300Y3790187D02*
G01*
X13183616Y3801871D01*
X13172186Y3807713D01*
X13154913Y3807713D01*
X13143229Y3801871D01*
X13131800Y3790187D01*
X13125958Y3772915D01*
X13125958Y3761486D01*
X13131800Y3744213D01*
X13143229Y3732529D01*
X13154913Y3726687D01*
X13172186Y3726687D01*
X13183616Y3732529D01*
X13195300Y3744213D01*
X14897100Y4406900D02*
G01*
X14703297Y4406900D01*
X14832584Y4345939D02*
G01*
X14703297Y4345939D01*
X14795500Y4345939D02*
G01*
X14823186Y4318254D01*
X14832584Y4299712D01*
X14832584Y4272026D01*
X14823186Y4253484D01*
X14795500Y4244339D01*
X14703297Y4244339D01*
X14860270Y4183379D02*
G01*
X14869413Y4164837D01*
X14897100Y4137152D01*
X14703297Y4137152D01*
X14897097Y3924300D02*
G01*
X14703295Y3924300D01*
X14832581Y3863339D02*
G01*
X14703295Y3863339D01*
X14795497Y3863339D02*
G01*
X14823183Y3835654D01*
X14832581Y3817112D01*
X14832581Y3789426D01*
X14823183Y3770884D01*
X14795497Y3761739D01*
X14703295Y3761739D01*
X14851123Y3691636D02*
G01*
X14860267Y3691636D01*
X14878809Y3682237D01*
X14887953Y3673094D01*
X14897097Y3654552D01*
X14897097Y3617721D01*
X14887953Y3599179D01*
X14878809Y3590036D01*
X14860267Y3580637D01*
X14841725Y3580637D01*
X14823183Y3590036D01*
X14795497Y3608323D01*
X14703295Y3700779D01*
X14703295Y3571494D01*
D10*
X15672816Y2197100D02*
G01*
X15594838Y2197100D01*
X15579343Y2192020D01*
X15568929Y2181605D01*
X15563850Y2165857D01*
X15563850Y2155444D01*
X15568929Y2139950D01*
X15579343Y2129536D01*
X15594838Y2124455D01*
X15672816Y2124455D01*
X15672816Y2038095D02*
G01*
X15600172Y2090165D01*
X15600172Y2012187D01*
X15672816Y2038095D02*
G01*
X15563850Y2038095D01*
D11*
X12913611Y2527300D02*
G01*
X12959839Y2405887D01*
X13006067Y2527300D02*
G01*
X12959839Y2405887D01*
X13113255Y2469387D02*
G01*
X13101825Y2481071D01*
X13090141Y2486913D01*
X13072869Y2486913D01*
X13061439Y2481071D01*
X13049755Y2469387D01*
X13044167Y2452115D01*
X13044167Y2440686D01*
X13049755Y2423413D01*
X13061439Y2411729D01*
X13072869Y2405887D01*
X13090141Y2405887D01*
X13101825Y2411729D01*
X13113255Y2423413D01*
X13220697Y2469387D02*
G01*
X13209267Y2481071D01*
X13197583Y2486913D01*
X13180311Y2486913D01*
X13168881Y2481071D01*
X13157197Y2469387D01*
X13151355Y2452115D01*
X13151355Y2440686D01*
X13157197Y2423413D01*
X13168881Y2411729D01*
X13180311Y2405887D01*
X13197583Y2405887D01*
X13209267Y2411729D01*
X13220697Y2423413D01*
X12951713Y2273300D02*
G01*
X12940284Y2267457D01*
X12928600Y2256028D01*
X12923011Y2244344D01*
X12917170Y2227071D01*
X12917170Y2198115D01*
X12923011Y2180844D01*
X12928600Y2169413D01*
X12940284Y2157729D01*
X12951713Y2151887D01*
X12974827Y2151887D01*
X12986511Y2157729D01*
X12997941Y2169413D01*
X13003784Y2180844D01*
X13009625Y2198115D01*
X13009625Y2227071D01*
X13003784Y2244344D01*
X12997941Y2256028D01*
X12986511Y2267457D01*
X12974827Y2273300D01*
X12951713Y2273300D01*
X13047725Y2232913D02*
G01*
X13047725Y2175002D01*
X13053313Y2157729D01*
X13064997Y2151887D01*
X13082270Y2151887D01*
X13093700Y2157729D01*
X13111225Y2175002D01*
X13111225Y2232913D02*
G01*
X13111225Y2151887D01*
X13166597Y2273300D02*
G01*
X13166597Y2175002D01*
X13172440Y2157729D01*
X13183870Y2151887D01*
X13195300Y2151887D01*
X13149325Y2232913D02*
G01*
X13189711Y2232913D01*
X12986258Y1964944D02*
G01*
X12980415Y1976628D01*
X12968986Y1988057D01*
X12957302Y1993900D01*
X12934188Y1993900D01*
X12922758Y1988057D01*
X12911074Y1976628D01*
X12905486Y1964944D01*
X12899643Y1947671D01*
X12899643Y1918715D01*
X12905486Y1901444D01*
X12911074Y1890013D01*
X12922758Y1878329D01*
X12934188Y1872487D01*
X12957302Y1872487D01*
X12968986Y1878329D01*
X12980415Y1890013D01*
X12986258Y1901444D01*
X12986258Y1918715D01*
X12957302Y1918715D02*
G01*
X12986258Y1918715D01*
X13024358Y1953513D02*
G01*
X13024358Y1872487D01*
X13024358Y1930400D02*
G01*
X13041629Y1947671D01*
X13053313Y1953513D01*
X13070586Y1953513D01*
X13082015Y1947671D01*
X13087858Y1930400D01*
X13087858Y1872487D01*
X13195300Y1993900D02*
G01*
X13195300Y1872487D01*
X13195300Y1935987D02*
G01*
X13183616Y1947671D01*
X13172186Y1953513D01*
X13154913Y1953513D01*
X13143229Y1947671D01*
X13131800Y1935987D01*
X13125958Y1918715D01*
X13125958Y1907286D01*
X13131800Y1890013D01*
X13143229Y1878329D01*
X13154913Y1872487D01*
X13172186Y1872487D01*
X13183616Y1878329D01*
X13195300Y1890013D01*
X14897100Y2552700D02*
G01*
X14703297Y2552700D01*
X14832584Y2491739D02*
G01*
X14703297Y2491739D01*
X14795500Y2491739D02*
G01*
X14823186Y2464054D01*
X14832584Y2445512D01*
X14832584Y2417826D01*
X14823186Y2399284D01*
X14795500Y2390139D01*
X14703297Y2390139D01*
X14860270Y2329179D02*
G01*
X14869413Y2310637D01*
X14897100Y2282952D01*
X14703297Y2282952D01*
X14897097Y2070100D02*
G01*
X14703295Y2070100D01*
X14832581Y2009139D02*
G01*
X14703295Y2009139D01*
X14795497Y2009139D02*
G01*
X14823183Y1981454D01*
X14832581Y1962912D01*
X14832581Y1935226D01*
X14823183Y1916684D01*
X14795497Y1907539D01*
X14703295Y1907539D01*
X14851123Y1837436D02*
G01*
X14860267Y1837436D01*
X14878809Y1828037D01*
X14887953Y1818894D01*
X14897097Y1800352D01*
X14897097Y1763521D01*
X14887953Y1744979D01*
X14878809Y1735836D01*
X14860267Y1726437D01*
X14841725Y1726437D01*
X14823183Y1735836D01*
X14795497Y1754123D01*
X14703295Y1846579D01*
X14703295Y1717294D01*
D10*
X15698216Y444500D02*
G01*
X15620238Y444500D01*
X15604743Y439420D01*
X15594329Y429005D01*
X15589250Y413257D01*
X15589250Y402844D01*
X15594329Y387350D01*
X15604743Y376936D01*
X15620238Y371855D01*
X15698216Y371855D01*
X15698216Y275081D02*
G01*
X15698216Y327152D01*
X15651479Y332231D01*
X15656559Y327152D01*
X15661893Y311404D01*
X15661893Y295910D01*
X15656559Y280415D01*
X15646400Y270002D01*
X15630652Y264668D01*
X15620238Y264668D01*
X15604743Y270002D01*
X15594329Y280415D01*
X15589250Y295910D01*
X15589250Y311404D01*
X15594329Y327152D01*
X15599409Y332231D01*
X15609824Y337565D01*
D11*
X12939011Y774700D02*
G01*
X12985239Y653287D01*
X13031467Y774700D02*
G01*
X12985239Y653287D01*
X13138655Y716787D02*
G01*
X13127225Y728471D01*
X13115541Y734313D01*
X13098269Y734313D01*
X13086839Y728471D01*
X13075155Y716787D01*
X13069567Y699515D01*
X13069567Y688086D01*
X13075155Y670813D01*
X13086839Y659129D01*
X13098269Y653287D01*
X13115541Y653287D01*
X13127225Y659129D01*
X13138655Y670813D01*
X13246097Y716787D02*
G01*
X13234667Y728471D01*
X13222983Y734313D01*
X13205711Y734313D01*
X13194281Y728471D01*
X13182597Y716787D01*
X13176755Y699515D01*
X13176755Y688086D01*
X13182597Y670813D01*
X13194281Y659129D01*
X13205711Y653287D01*
X13222983Y653287D01*
X13234667Y659129D01*
X13246097Y670813D01*
X12977113Y520700D02*
G01*
X12965684Y514857D01*
X12954000Y503428D01*
X12948411Y491744D01*
X12942570Y474471D01*
X12942570Y445515D01*
X12948411Y428244D01*
X12954000Y416813D01*
X12965684Y405129D01*
X12977113Y399287D01*
X13000227Y399287D01*
X13011911Y405129D01*
X13023341Y416813D01*
X13029184Y428244D01*
X13035025Y445515D01*
X13035025Y474471D01*
X13029184Y491744D01*
X13023341Y503428D01*
X13011911Y514857D01*
X13000227Y520700D01*
X12977113Y520700D01*
X13073125Y480313D02*
G01*
X13073125Y422402D01*
X13078713Y405129D01*
X13090397Y399287D01*
X13107670Y399287D01*
X13119100Y405129D01*
X13136625Y422402D01*
X13136625Y480313D02*
G01*
X13136625Y399287D01*
X13191997Y520700D02*
G01*
X13191997Y422402D01*
X13197840Y405129D01*
X13209270Y399287D01*
X13220700Y399287D01*
X13174725Y480313D02*
G01*
X13215111Y480313D01*
X13011658Y212344D02*
G01*
X13005815Y224028D01*
X12994386Y235457D01*
X12982702Y241300D01*
X12959588Y241300D01*
X12948158Y235457D01*
X12936474Y224028D01*
X12930886Y212344D01*
X12925043Y195071D01*
X12925043Y166115D01*
X12930886Y148844D01*
X12936474Y137413D01*
X12948158Y125729D01*
X12959588Y119887D01*
X12982702Y119887D01*
X12994386Y125729D01*
X13005815Y137413D01*
X13011658Y148844D01*
X13011658Y166115D01*
X12982702Y166115D02*
G01*
X13011658Y166115D01*
X13049758Y200913D02*
G01*
X13049758Y119887D01*
X13049758Y177800D02*
G01*
X13067029Y195071D01*
X13078713Y200913D01*
X13095986Y200913D01*
X13107416Y195071D01*
X13113258Y177800D01*
X13113258Y119887D01*
X13220700Y241300D02*
G01*
X13220700Y119887D01*
X13220700Y183387D02*
G01*
X13209016Y195071D01*
X13197586Y200913D01*
X13180313Y200913D01*
X13168629Y195071D01*
X13157200Y183387D01*
X13151358Y166115D01*
X13151358Y154686D01*
X13157200Y137413D01*
X13168629Y125729D01*
X13180313Y119887D01*
X13197586Y119887D01*
X13209016Y125729D01*
X13220700Y137413D01*
X14922500Y800100D02*
G01*
X14728697Y800100D01*
X14857984Y739139D02*
G01*
X14728697Y739139D01*
X14820900Y739139D02*
G01*
X14848586Y711454D01*
X14857984Y692912D01*
X14857984Y665226D01*
X14848586Y646684D01*
X14820900Y637539D01*
X14728697Y637539D01*
X14885670Y576579D02*
G01*
X14894813Y558037D01*
X14922500Y530352D01*
X14728697Y530352D01*
X14922497Y317500D02*
G01*
X14728695Y317500D01*
X14857981Y256539D02*
G01*
X14728695Y256539D01*
X14820897Y256539D02*
G01*
X14848583Y228854D01*
X14857981Y210312D01*
X14857981Y182626D01*
X14848583Y164084D01*
X14820897Y154939D01*
X14728695Y154939D01*
X14876523Y84836D02*
G01*
X14885667Y84836D01*
X14904209Y75437D01*
X14913353Y66294D01*
X14922497Y47752D01*
X14922497Y10921D01*
X14913353Y-7620D01*
X14904209Y-16763D01*
X14885667Y-26162D01*
X14867125Y-26162D01*
X14848583Y-16763D01*
X14820897Y1523D01*
X14728695Y93979D01*
X14728695Y-35305D01*
D10*
X2070100Y-2907284D02*
G01*
X2070100Y-2985262D01*
X2075179Y-3000755D01*
X2085593Y-3011170D01*
X2101341Y-3016250D01*
X2111756Y-3016250D01*
X2127250Y-3011170D01*
X2137663Y-3000755D01*
X2142743Y-2985262D01*
X2142743Y-2907284D01*
X2239518Y-2922778D02*
G01*
X2234184Y-2912363D01*
X2218690Y-2907284D01*
X2208275Y-2907284D01*
X2192781Y-2912363D01*
X2182368Y-2928112D01*
X2177034Y-2954020D01*
X2177034Y-2979928D01*
X2182368Y-3000755D01*
X2192781Y-3011170D01*
X2208275Y-3016250D01*
X2213609Y-3016250D01*
X2229104Y-3011170D01*
X2239518Y-3000755D01*
X2244597Y-2985262D01*
X2244597Y-2979928D01*
X2239518Y-2964434D01*
X2229104Y-2954020D01*
X2213609Y-2948939D01*
X2208275Y-2948939D01*
X2192781Y-2954020D01*
X2182368Y-2964434D01*
X2177034Y-2979928D01*
X15977616Y-3810000D02*
G01*
X15899638Y-3810000D01*
X15884143Y-3815079D01*
X15873729Y-3825494D01*
X15868650Y-3841242D01*
X15868650Y-3851655D01*
X15873729Y-3867150D01*
X15884143Y-3877563D01*
X15899638Y-3882644D01*
X15977616Y-3882644D01*
X15977616Y-3989831D02*
G01*
X15868650Y-3937762D01*
X15977616Y-3916934D02*
G01*
X15977616Y-3989831D01*
D11*
X15772891Y-3431286D02*
G01*
X15791434Y-3412744D01*
X15800577Y-3385057D01*
X15800577Y-3348228D01*
X15791434Y-3320542D01*
X15772891Y-3302000D01*
X15754350Y-3302000D01*
X15736061Y-3311144D01*
X15726663Y-3320542D01*
X15717520Y-3338829D01*
X15698977Y-3394455D01*
X15689834Y-3412744D01*
X15680690Y-3422142D01*
X15662147Y-3431286D01*
X15634461Y-3431286D01*
X15615920Y-3412744D01*
X15606775Y-3385057D01*
X15606775Y-3348228D01*
X15615920Y-3320542D01*
X15634461Y-3302000D01*
X15754350Y-3630929D02*
G01*
X15772891Y-3621531D01*
X15791434Y-3602989D01*
X15800577Y-3584702D01*
X15800577Y-3547618D01*
X15791434Y-3529329D01*
X15772891Y-3510787D01*
X15754350Y-3501389D01*
X15726663Y-3492245D01*
X15680690Y-3492245D01*
X15652750Y-3501389D01*
X15634461Y-3510787D01*
X15615920Y-3529329D01*
X15606775Y-3547618D01*
X15606775Y-3584702D01*
X15615920Y-3602989D01*
X15634461Y-3621531D01*
X15652750Y-3630929D01*
X15800577Y-3756405D02*
G01*
X15606775Y-3756405D01*
X15800577Y-3691889D02*
G01*
X15800577Y-3821176D01*
X15800577Y-3937507D02*
G01*
X15791434Y-3909821D01*
X15763747Y-3891279D01*
X15717520Y-3882136D01*
X15689834Y-3882136D01*
X15643606Y-3891279D01*
X15615920Y-3909821D01*
X15606775Y-3937507D01*
X15606775Y-3956050D01*
X15615920Y-3983736D01*
X15643606Y-4002023D01*
X15689834Y-4011421D01*
X15717520Y-4011421D01*
X15763747Y-4002023D01*
X15791434Y-3983736D01*
X15800577Y-3956050D01*
X15800577Y-3937507D01*
X15763747Y-4072381D02*
G01*
X15772891Y-4090670D01*
X15800577Y-4118610D01*
X15606775Y-4118610D01*
X15800577Y-4197857D02*
G01*
X15800577Y-4299457D01*
X15726663Y-4244086D01*
X15726663Y-4271771D01*
X15717520Y-4290313D01*
X15708375Y-4299457D01*
X15680690Y-4308855D01*
X15662147Y-4308855D01*
X15634461Y-4299457D01*
X15615920Y-4281170D01*
X15606775Y-4253229D01*
X15606775Y-4225544D01*
X15615920Y-4197857D01*
X15625063Y-4188713D01*
X15643606Y-4179570D01*
D10*
X1905000Y318515D02*
G01*
X1905000Y240537D01*
X1910079Y225044D01*
X1920494Y214629D01*
X1936241Y209550D01*
X1946656Y209550D01*
X1962150Y214629D01*
X1972563Y225044D01*
X1977643Y240537D01*
X1977643Y318515D01*
X2038095Y318515D02*
G01*
X2022347Y313436D01*
X2017268Y303021D01*
X2017268Y292607D01*
X2022347Y282194D01*
X2032761Y276860D01*
X2053590Y271779D01*
X2069084Y266700D01*
X2079497Y256286D01*
X2084831Y245871D01*
X2084831Y230123D01*
X2079497Y219710D01*
X2074418Y214629D01*
X2058670Y209550D01*
X2038095Y209550D01*
X2022347Y214629D01*
X2017268Y219710D01*
X2011934Y230123D01*
X2011934Y245871D01*
X2017268Y256286D01*
X2027681Y266700D01*
X2043175Y271779D01*
X2064004Y276860D01*
X2074418Y282194D01*
X2079497Y292607D01*
X2079497Y303021D01*
X2074418Y313436D01*
X2058670Y318515D01*
X2038095Y318515D01*
X3250031Y4621758D02*
G01*
X3250031Y4543780D01*
X3255111Y4528286D01*
X3265525Y4517872D01*
X3281273Y4512792D01*
X3291687Y4512792D01*
X3307181Y4517872D01*
X3317595Y4528286D01*
X3322675Y4543780D01*
X3322675Y4621758D01*
X3424529Y4585436D02*
G01*
X3419449Y4569942D01*
X3409035Y4559528D01*
X3393541Y4554194D01*
X3388207Y4554194D01*
X3372713Y4559528D01*
X3362299Y4569942D01*
X3356965Y4585436D01*
X3356965Y4590516D01*
X3362299Y4606264D01*
X3372713Y4616678D01*
X3388207Y4621758D01*
X3393541Y4621758D01*
X3409035Y4616678D01*
X3419449Y4606264D01*
X3424529Y4585436D01*
X3424529Y4559528D01*
X3419449Y4533366D01*
X3409035Y4517872D01*
X3393541Y4512792D01*
X3383127Y4512792D01*
X3367379Y4517872D01*
X3362299Y4528286D01*
D11*
X4006977Y4048632D02*
G01*
X3997833Y4043806D01*
X3988434Y4034917D01*
X3984116Y4025772D01*
X3984116Y4007738D01*
X3988434Y3998340D01*
X3997833Y3989196D01*
X4006977Y3985132D01*
X4020693Y3980306D01*
X4043299Y3980306D01*
X4056761Y3985132D01*
X4065650Y3989196D01*
X4075049Y3998340D01*
X4079875Y4007738D01*
X4079875Y4025772D01*
X4075049Y4034917D01*
X4065650Y4043806D01*
X4056761Y4048632D01*
X3997833Y4142359D02*
G01*
X3988434Y4133214D01*
X3984116Y4119498D01*
X3984116Y4101464D01*
X3988434Y4087748D01*
X3997833Y4078604D01*
X4006977Y4078604D01*
X4016375Y4082922D01*
X4020693Y4087748D01*
X4025011Y4096638D01*
X4033900Y4123817D01*
X4038727Y4133214D01*
X4043299Y4137532D01*
X4052443Y4142359D01*
X4065650Y4142359D01*
X4075049Y4133214D01*
X4079875Y4119498D01*
X4079875Y4101464D01*
X4075049Y4087748D01*
X4065650Y4078604D01*
X3484752Y3905630D02*
G01*
X3580002Y3905630D01*
X3484752Y3905630D02*
G01*
X3484752Y3946779D01*
X3489070Y3960748D01*
X3493388Y3964812D01*
X3502786Y3969638D01*
X3511931Y3969638D01*
X3520820Y3964812D01*
X3525138Y3960748D01*
X3529456Y3946779D01*
X3529456Y3905630D01*
X3529456Y3937888D02*
G01*
X3580002Y3969638D01*
X3484752Y3999864D02*
G01*
X3580002Y3999864D01*
X3484752Y3999864D02*
G01*
X3484752Y4058538D01*
X3529456Y3999864D02*
G01*
X3529456Y4035932D01*
X3580002Y3999864D02*
G01*
X3580002Y4058538D01*
X3497706Y4152264D02*
G01*
X3489070Y4143629D01*
X3484752Y4129404D01*
X3484752Y4111370D01*
X3489070Y4097654D01*
X3497706Y4088764D01*
X3507104Y4088764D01*
X3516502Y4093590D01*
X3520820Y4097654D01*
X3525138Y4106798D01*
X3534536Y4134230D01*
X3538854Y4143629D01*
X3543681Y4147438D01*
X3552570Y4152264D01*
X3566286Y4152264D01*
X3575431Y4143629D01*
X3580002Y4129404D01*
X3580002Y4111370D01*
X3575431Y4097654D01*
X3566286Y4088764D01*
X3222625Y4025772D02*
G01*
X3318129Y4025772D01*
X3222625Y4025772D02*
G01*
X3222625Y4057522D01*
X3227450Y4071238D01*
X3236086Y4079620D01*
X3244722Y4084954D01*
X3259200Y4089272D01*
X3281806Y4089272D01*
X3295015Y4084954D01*
X3304666Y4079620D01*
X3313811Y4071238D01*
X3318129Y4057522D01*
X3318129Y4025772D01*
X3240659Y4119245D02*
G01*
X3236086Y4128388D01*
X3222625Y4142104D01*
X3318129Y4142104D01*
X3734688Y3980306D02*
G01*
X3829938Y3980306D01*
X3734688Y3980306D02*
G01*
X3734688Y4012056D01*
X3739006Y4026280D01*
X3748150Y4035170D01*
X3757040Y4039996D01*
X3770756Y4044314D01*
X3793616Y4044314D01*
X3806825Y4039996D01*
X3816222Y4035170D01*
X3825366Y4026280D01*
X3829938Y4012056D01*
X3829938Y3980306D01*
X3757040Y4142612D02*
G01*
X3748150Y4137787D01*
X3739006Y4128896D01*
X3734688Y4119498D01*
X3734688Y4101464D01*
X3739006Y4092320D01*
X3748150Y4083430D01*
X3757040Y4079112D01*
X3770756Y4074287D01*
X3793616Y4074287D01*
X3806825Y4079112D01*
X3816222Y4083430D01*
X3825366Y4092320D01*
X3829938Y4101464D01*
X3829938Y4119498D01*
X3825366Y4128896D01*
X3816222Y4137787D01*
X3806825Y4142612D01*
X2959481Y3980306D02*
G01*
X3054984Y3980306D01*
X2959481Y3980306D02*
G01*
X2959481Y4012056D01*
X2964052Y4025772D01*
X2972943Y4034917D01*
X2982086Y4039488D01*
X2995802Y4043806D01*
X3018409Y4043806D01*
X3032125Y4039488D01*
X3041268Y4034917D01*
X3050413Y4025772D01*
X3054984Y4012056D01*
X3054984Y3980306D01*
X2959481Y4100956D02*
G01*
X2964052Y4087748D01*
X2977261Y4078859D01*
X3000375Y4074032D01*
X3013836Y4074032D01*
X3036697Y4078859D01*
X3050413Y4087748D01*
X3054984Y4100956D01*
X3054984Y4110609D01*
X3050413Y4124325D01*
X3036697Y4132706D01*
X3013836Y4137532D01*
X3000375Y4137532D01*
X2977261Y4132706D01*
X2964052Y4124325D01*
X2959481Y4110609D01*
X2959481Y4100956D01*
X2709799Y3905630D02*
G01*
X2805049Y3941953D01*
X2709799Y3978275D02*
G01*
X2805049Y3941953D01*
X2732150Y4076572D02*
G01*
X2723006Y4072001D01*
X2714116Y4062856D01*
X2709799Y4053967D01*
X2709799Y4035425D01*
X2714116Y4026535D01*
X2723006Y4017645D01*
X2732150Y4013072D01*
X2745866Y4008501D01*
X2768472Y4008501D01*
X2782443Y4013072D01*
X2791333Y4017645D01*
X2800222Y4026535D01*
X2805049Y4035425D01*
X2805049Y4053967D01*
X2800222Y4062856D01*
X2791333Y4072001D01*
X2782443Y4076572D01*
X2732150Y4174617D02*
G01*
X2723006Y4170298D01*
X2714116Y4160901D01*
X2709799Y4152011D01*
X2709799Y4133977D01*
X2714116Y4124832D01*
X2723006Y4115435D01*
X2732150Y4111117D01*
X2745866Y4106545D01*
X2768472Y4106545D01*
X2782443Y4111117D01*
X2791333Y4115435D01*
X2800222Y4124832D01*
X2805049Y4133977D01*
X2805049Y4152011D01*
X2800222Y4160901D01*
X2791333Y4170298D01*
X2782443Y4174617D01*
X2481961Y3973703D02*
G01*
X2473070Y3969385D01*
X2463927Y3960240D01*
X2459609Y3951096D01*
X2459609Y3932809D01*
X2463927Y3923919D01*
X2473070Y3914775D01*
X2481961Y3910203D01*
X2495677Y3905630D01*
X2518536Y3905630D01*
X2532252Y3910203D01*
X2541143Y3914775D01*
X2550286Y3923919D01*
X2554859Y3932809D01*
X2554859Y3951096D01*
X2550286Y3960240D01*
X2541143Y3969385D01*
X2532252Y3973703D01*
X2518536Y3973703D01*
X2518536Y3951096D02*
G01*
X2518536Y3973703D01*
X2459609Y4003929D02*
G01*
X2554859Y4003929D01*
X2459609Y4003929D02*
G01*
X2554859Y4067429D01*
X2459609Y4067429D02*
G01*
X2554859Y4067429D01*
X2459609Y4097401D02*
G01*
X2554859Y4097401D01*
X2459609Y4097401D02*
G01*
X2459609Y4129151D01*
X2463927Y4142867D01*
X2473070Y4152011D01*
X2481961Y4156582D01*
X2495677Y4161154D01*
X2518536Y4161154D01*
X2532252Y4156582D01*
X2541143Y4152011D01*
X2550286Y4142867D01*
X2554859Y4129151D01*
X2554859Y4097401D01*
G36*
X14076680Y-3380587D02*
G01*
X14076629Y-3680612D01*
X14087754Y-3679393D01*
X14098727Y-3677412D01*
X14109496Y-3674618D01*
X14120063Y-3671011D01*
X14130324Y-3666642D01*
X14140230Y-3661511D01*
X14149730Y-3655669D01*
X14158772Y-3649167D01*
X14167307Y-3642004D01*
X14175282Y-3634181D01*
X14182648Y-3625850D01*
X14189354Y-3616960D01*
X14195450Y-3607612D01*
X14200784Y-3597808D01*
X14205407Y-3587648D01*
X14209268Y-3577183D01*
X14212316Y-3566464D01*
X14214551Y-3555593D01*
X14216024Y-3544519D01*
X14216634Y-3533394D01*
X14216430Y-3522218D01*
X14215363Y-3511143D01*
X14213535Y-3500120D01*
X14210893Y-3489299D01*
X14207439Y-3478733D01*
X14203172Y-3468420D01*
X14198193Y-3458413D01*
X14192504Y-3448862D01*
X14186103Y-3439718D01*
X14179042Y-3431082D01*
X14171320Y-3423005D01*
X14163090Y-3415537D01*
X14154302Y-3408679D01*
X14145006Y-3402482D01*
X14135303Y-3396996D01*
X14125244Y-3392271D01*
X14114830Y-3388258D01*
X14104112Y-3385058D01*
X14093240Y-3382670D01*
X14087754Y-3381756D01*
G37*
D12*
X14006598Y-3435601D02*
G01*
X14056598Y-3435601D01*
X14031600Y-3460600D02*
G01*
X14031600Y-3410600D01*
D13*
X5483400Y-159496D02*
G01*
X5743399Y-159496D01*
X5458000Y-1226296D02*
G01*
X5717999Y-1226296D01*
X5445300Y-2254996D02*
G01*
X5705299Y-2254996D01*
X3886200Y-2159000D02*
G01*
X3860800Y-2159000D01*
X4394200Y-2159000D02*
G01*
X4419600Y-2159000D01*
X3886200Y-2159000D02*
G01*
X3886200Y-2082800D01*
X3886200Y-2235200D02*
G01*
X3886200Y-2159000D01*
X4394200Y-2235200D02*
G01*
X3886200Y-2235200D01*
X4394200Y-2159000D02*
G01*
X4394200Y-2235200D01*
X4394200Y-2082800D02*
G01*
X4394200Y-2159000D01*
X3886200Y-2082800D02*
G01*
X4394200Y-2082800D01*
X10883900Y-3441700D02*
G01*
X10858500Y-3441700D01*
X11391900Y-3441700D02*
G01*
X11417300Y-3441700D01*
X10883900Y-3441700D02*
G01*
X10883900Y-3365500D01*
X10883900Y-3517900D02*
G01*
X10883900Y-3441700D01*
X11391900Y-3517900D02*
G01*
X10883900Y-3517900D01*
X11391900Y-3441700D02*
G01*
X11391900Y-3517900D01*
X11391900Y-3365500D02*
G01*
X11391900Y-3441700D01*
X10883900Y-3365500D02*
G01*
X11391900Y-3365500D01*
X12319000Y-3454400D02*
G01*
X12293600Y-3454400D01*
X12827000Y-3454400D02*
G01*
X12852400Y-3454400D01*
X12319000Y-3454400D02*
G01*
X12319000Y-3378200D01*
X12319000Y-3530600D02*
G01*
X12319000Y-3454400D01*
X12827000Y-3530600D02*
G01*
X12319000Y-3530600D01*
X12827000Y-3454400D02*
G01*
X12827000Y-3530600D01*
X12827000Y-3378200D02*
G01*
X12827000Y-3454400D01*
X12319000Y-3378200D02*
G01*
X12827000Y-3378200D01*
X11696700Y-4216400D02*
G01*
X11671300Y-4216400D01*
X12204700Y-4216400D02*
G01*
X12230100Y-4216400D01*
X11696700Y-4216400D02*
G01*
X11696700Y-4140200D01*
X11696700Y-4292600D02*
G01*
X11696700Y-4216400D01*
X12204700Y-4292600D02*
G01*
X11696700Y-4292600D01*
X12204700Y-4216400D02*
G01*
X12204700Y-4292600D01*
X12204700Y-4140200D02*
G01*
X12204700Y-4216400D01*
X11696700Y-4140200D02*
G01*
X12204700Y-4140200D01*
X3860800Y-88900D02*
G01*
X3835400Y-88900D01*
X4368800Y-88900D02*
G01*
X4394200Y-88900D01*
X3860800Y-88900D02*
G01*
X3860800Y-12700D01*
X3860800Y-165100D02*
G01*
X3860800Y-88900D01*
X4368800Y-165100D02*
G01*
X3860800Y-165100D01*
X4368800Y-88900D02*
G01*
X4368800Y-165100D01*
X4368800Y-12700D02*
G01*
X4368800Y-88900D01*
X3860800Y-12700D02*
G01*
X4368800Y-12700D01*
X3886200Y-1143000D02*
G01*
X3860800Y-1143000D01*
X4394200Y-1143000D02*
G01*
X4419600Y-1143000D01*
X3886200Y-1143000D02*
G01*
X3886200Y-1066800D01*
X3886200Y-1219200D02*
G01*
X3886200Y-1143000D01*
X4394200Y-1219200D02*
G01*
X3886200Y-1219200D01*
X4394200Y-1143000D02*
G01*
X4394200Y-1219200D01*
X4394200Y-1066800D02*
G01*
X4394200Y-1143000D01*
X3886200Y-1066800D02*
G01*
X4394200Y-1066800D01*
X6896100Y4572000D02*
G01*
X9690100Y4572000D01*
X9690100Y-508000D01*
X6896100Y-508000D01*
X6896100Y4572000D01*
X7912100Y4610100D02*
G01*
X8674100Y4610100D01*
X8674100Y4572000D01*
X7912100Y4572000D01*
X7912100Y4610100D01*
X15595600Y-2628900D02*
G01*
X15595600Y-622300D01*
X10591800Y-622300D01*
X10591800Y-2628900D01*
X15595600Y-2628900D01*
X15570200Y-2113279D02*
G01*
X14757400Y-2113279D01*
X14757400Y-1071879D01*
X15570200Y-1071879D01*
X15570200Y-2113279D01*
X15417800Y-2087879D02*
G01*
X14909800Y-2087879D01*
X14909800Y-1097279D01*
X15417800Y-1097279D01*
X15417800Y-2087879D01*
X14655800Y-2628900D02*
G01*
X14655800Y-622300D01*
X12928600Y-622300D01*
X12928600Y-2628900D01*
X14655800Y-2628900D01*
X10922000Y-1181100D02*
G01*
X10922000Y-2247900D01*
X10617200Y-2247900D01*
X10617200Y-1181100D01*
X10922000Y-1181100D01*
X10922000Y-1460500D02*
G01*
X10617200Y-1460500D01*
X15532100Y4686300D02*
G01*
X12484100Y4686300D01*
X12484100Y3390900D01*
X15532100Y3390900D01*
X15532100Y4686300D01*
X15532100Y2832100D02*
G01*
X12484100Y2832100D01*
X12484100Y1536700D01*
X15532100Y1536700D01*
X15532100Y2832100D01*
X15557500Y1079500D02*
G01*
X12509500Y1079500D01*
X12509500Y-215900D01*
X15557500Y-215900D01*
X15557500Y1079500D01*
X2501900Y-3098800D02*
G01*
X1638300Y-3098800D01*
X1638300Y-3454400D01*
X2501900Y-3454400D01*
X2501900Y-3098800D01*
X1638300Y-3098800D02*
G01*
X1638300Y-3048000D01*
X2501900Y-3048000D01*
X2501900Y-3098800D01*
X15506700Y-3175000D02*
G01*
X15506700Y-4457700D01*
X14998700Y-4457700D01*
X14998700Y-3175000D01*
X15506700Y-3175000D01*
X1215415Y167004D02*
G01*
X1215415Y-1183004D01*
X1215415Y167004D02*
G01*
X1890395Y167004D01*
X1215415Y-1183004D02*
G01*
X1890395Y-1183004D01*
X1764131Y4455642D02*
G01*
X1764131Y1855673D01*
X4764125Y4155668D02*
G01*
X4764125Y1555673D01*
X2063775Y1555622D02*
G01*
X2563774Y1555622D01*
X1764131Y4455642D02*
G01*
X4463770Y4455642D01*
X2363774Y3855669D02*
G01*
X4163771Y3855669D01*
X2363774Y3855669D02*
G01*
X2363774Y4455668D01*
X4163771Y3855669D02*
G01*
X4163771Y4455668D01*
X3898823Y3855669D02*
G01*
X3898823Y4455642D01*
X3642817Y3855669D02*
G01*
X3642817Y4455642D01*
X3388817Y3855669D02*
G01*
X3388817Y4455642D01*
X3134817Y3855669D02*
G01*
X3134817Y4455642D01*
X2880817Y3855669D02*
G01*
X2880817Y4455642D01*
X2626817Y3855669D02*
G01*
X2626817Y4455642D01*
X3964127Y1555622D02*
G01*
X4764125Y1555622D01*
X2563774Y1555750D02*
G01*
X2563774Y1755647D01*
X3964127Y1555622D02*
G01*
X3964127Y1755520D01*
X2563672Y1755647D02*
G01*
X3963720Y1755647D01*
G75*
G01*
X5751576Y-156667D02*
G03*
X5475224Y-156667I-138176J220244D01*
G75*
G01*
X5726176Y-1223467D02*
G03*
X5449824Y-1223467I-138176J220244D01*
G75*
G01*
X5713476Y-2252167D02*
G03*
X5437124Y-2252167I-138176J220244D01*
G75*
G01*
X2063877Y1555623D02*
G02*
X1763903Y1855597I25J299999D01*
G75*
G01*
X4463923Y4455795D02*
G02*
X4763897Y4155567I-25J-299999D01*
G75*
G01
X14221673Y-3530610D02*
G03X14221673Y-3530610I-150012J0D01*
G75*
G01
X15392400Y-1846580D02*
G03X15392400Y-1846580I-228600J0D01*
G75*
G01
X15392400Y-1338580D02*
G03X15392400Y-1338580I-228600J0D01*
M02*
