G04 Layer: TopLayer*
G04 EasyEDA v6.5.42, 2024-05-04 09:00:08*
G04 1b880a871dba45ccba3123794a0e531b,10*
G04 Gerber Generator version 0.2*
G04 Scale: 100 percent, Rotated: No, Reflected: No *
G04 Dimensions in millimeters *
G04 leading zeros omitted , absolute positions ,4 integer and 5 decimal *
%FSLAX45Y45*%
%MOMM*%

%AMMACRO1*21,1,$1,$2,0,0,$3*%
%ADD10C,0.2032*%
%ADD11C,0.2540*%
%ADD12C,1.0000*%
%ADD13C,1.6510*%
%ADD14C,1.8796*%
%ADD15C,1.6000*%
%ADD16C,3.0000*%
%ADD17R,1.7000X1.7000*%
%ADD18C,1.7000*%
%ADD19C,1.8000*%
%ADD20C,2.0000*%
%ADD21O,1.524X2.54*%
%ADD22MACRO1,1.4X3.999X0.0000*%
%ADD23MACRO1,1.4X3.5004X90.0000*%
%ADD24R,1.8000X1.8000*%

%LPD*%
D10*
X2548890Y-24892D02*
G01*
X2548890Y-191262D01*
X2465577Y-108204D02*
G01*
X2631947Y-108204D01*
X1815845Y-944118D02*
G01*
X1982215Y-944118D01*
X1565402Y-308102D02*
G01*
X1731771Y-308102D01*
D11*
X2565402Y-280134D02*
G01*
X2793316Y-280134D01*
X6483555Y3410104D01*
X9417204Y3410104D01*
X9563102Y3556002D01*
X2565402Y-508048D02*
G01*
X2565402Y-280134D01*
X12763502Y444502D02*
G01*
X10642602Y444502D01*
X9563102Y1524002D01*
X12738102Y2197102D02*
G01*
X12192002Y1651002D01*
X9521294Y1651002D01*
X9443214Y1572922D01*
X9443214Y1135890D01*
X9563102Y1016002D01*
X9563102Y3048002D02*
G01*
X8166127Y1651027D01*
X5473727Y1651027D01*
X3733802Y-88897D01*
X15252702Y-4190997D02*
G01*
X15095070Y-4348629D01*
X11701934Y-4348629D01*
X11569702Y-4216397D01*
X2070102Y-3276597D02*
G01*
X2385392Y-2961307D01*
X9903792Y-2961307D01*
X10769602Y-2095497D01*
X4521202Y-2158997D02*
G01*
X5575302Y-2158997D01*
X4521202Y-1142997D02*
G01*
X5575302Y-1142997D01*
X5588002Y-1130297D01*
X4495802Y-88897D02*
G01*
X5588002Y-88897D01*
X5613402Y-63497D01*
X15252702Y-3428997D02*
G01*
X15070203Y-3611496D01*
X14077444Y-3611496D01*
X13996545Y-3530597D01*
X12192002Y-3454397D02*
G01*
X12325936Y-3588331D01*
X13938811Y-3588331D01*
X13996545Y-3530597D01*
X1965073Y-508048D02*
G01*
X1965073Y-735962D01*
X12738102Y3797302D02*
G01*
X12242802Y3302002D01*
X9563102Y3302002D01*
X10756902Y-3441697D02*
G01*
X10895307Y-3303292D01*
X13919354Y-3303292D01*
X14146659Y-3530597D01*
X5588002Y-876297D02*
G01*
X5471086Y-759381D01*
X5471086Y-753513D01*
X5471086Y-753513D02*
G01*
X5738827Y-485772D01*
X5738827Y65077D01*
X5613402Y190502D01*
X5575302Y-1904997D02*
G01*
X10452102Y-1904997D01*
X10769602Y-1587497D01*
X2026998Y-753513D02*
G01*
X2026998Y-3065701D01*
X1816102Y-3276597D01*
X1965073Y-735962D02*
G01*
X1982624Y-753513D01*
X2026998Y-753513D01*
X2026998Y-753513D02*
G01*
X5471086Y-753513D01*
D12*
G01*
X14146667Y-3530610D03*
G01*
X13996553Y-3530610D03*
D13*
G01*
X5613400Y190500D03*
G01*
X5613400Y-63500D03*
G01*
X5588000Y-876300D03*
G01*
X5588000Y-1130300D03*
G01*
X5575300Y-1905000D03*
G01*
X5575300Y-2159000D03*
D14*
G01*
X3759200Y-2159000D03*
G01*
X4521200Y-2159000D03*
G01*
X10756900Y-3441700D03*
G01*
X11518900Y-3441700D03*
G01*
X12192000Y-3454400D03*
G01*
X12954000Y-3454400D03*
G01*
X11569700Y-4216400D03*
G01*
X12331700Y-4216400D03*
G01*
X3733800Y-88900D03*
G01*
X4495800Y-88900D03*
G01*
X3759200Y-1143000D03*
G01*
X4521200Y-1143000D03*
D15*
G01*
X9563100Y0D03*
G01*
X9563100Y254000D03*
G01*
X9563100Y508000D03*
G01*
X9563100Y762000D03*
G01*
X9563100Y1016000D03*
G01*
X9563100Y1270000D03*
G01*
X9563100Y1524000D03*
G01*
X9563100Y1778000D03*
G01*
X9563100Y2032000D03*
G01*
X9563100Y2286000D03*
G01*
X9563100Y2540000D03*
G01*
X9563100Y2794000D03*
G01*
X9563100Y3048000D03*
G01*
X9563100Y3302000D03*
G01*
X9563100Y3556000D03*
G01*
X7023100Y3556000D03*
G01*
X7023100Y3302000D03*
G01*
X7023100Y3048000D03*
G01*
X7023100Y2794000D03*
G01*
X7023100Y2540000D03*
G01*
X7023100Y2286000D03*
G01*
X7023100Y2032000D03*
G01*
X7023100Y1778000D03*
G01*
X7023100Y1524000D03*
G01*
X7023100Y1270000D03*
G01*
X7023100Y1016000D03*
G01*
X7023100Y762000D03*
G01*
X7023100Y508000D03*
G01*
X7023100Y254000D03*
G01*
X7023100Y0D03*
D16*
G01*
X15163800Y-1841500D03*
G01*
X15163800Y-1343660D03*
D17*
G01*
X10769600Y-1333500D03*
D18*
G01*
X10769600Y-1587500D03*
G01*
X10769600Y-1841500D03*
G01*
X10769600Y-2095500D03*
D16*
G01*
X15100300Y4279900D03*
G01*
X15100300Y3771900D03*
D19*
G01*
X12738100Y4305300D03*
G01*
X12738100Y4051300D03*
G01*
X12738100Y3797300D03*
D16*
G01*
X15100300Y2425700D03*
G01*
X15100300Y1917700D03*
D19*
G01*
X12738100Y2451100D03*
G01*
X12738100Y2197100D03*
G01*
X12738100Y1943100D03*
D16*
G01*
X15125700Y673100D03*
G01*
X15125700Y165100D03*
D19*
G01*
X12763500Y698500D03*
G01*
X12763500Y444500D03*
G01*
X12763500Y190500D03*
D20*
G01*
X1816100Y-3276600D03*
G01*
X2070100Y-3276600D03*
G01*
X2324100Y-3276600D03*
D21*
G01*
X15252700Y-3429000D03*
G01*
X15252700Y-4191000D03*
D22*
G01*
X2565400Y-508050D03*
G01*
X1965071Y-508050D03*
D23*
G01*
X2325382Y-988009D03*
D24*
G01*
X2502027Y4305427D03*
D19*
G01*
X4025772Y4304919D03*
G01*
X3771772Y4305172D03*
G01*
X3517772Y4305172D03*
G01*
X3264027Y4305680D03*
G01*
X3010027Y4304919D03*
G01*
X2756027Y4304919D03*
M02*
