G04 Layer: BottomLayer*
G04 EasyEDA v6.5.42, 2024-05-04 09:00:08*
G04 1b880a871dba45ccba3123794a0e531b,10*
G04 Gerber Generator version 0.2*
G04 Scale: 100 percent, Rotated: No, Reflected: No *
G04 Dimensions in millimeters *
G04 leading zeros omitted , absolute positions ,4 integer and 5 decimal *
%FSLAX45Y45*%
%MOMM*%

%AMMACRO1*21,1,$1,$2,0,0,$3*%
%ADD10C,0.2540*%
%ADD11C,1.0000*%
%ADD12C,1.6510*%
%ADD13C,1.8796*%
%ADD14C,1.6000*%
%ADD15C,3.0000*%
%ADD16R,1.7000X1.7000*%
%ADD17C,1.7000*%
%ADD18C,1.8000*%
%ADD19C,2.0000*%
%ADD20O,1.524X2.54*%
%ADD21MACRO1,1.4X3.999X0.0000*%
%ADD22MACRO1,1.4X3.5004X90.0000*%
%ADD23R,1.8000X1.8000*%

%LPD*%
D10*
X3264029Y4305683D02*
G01*
X3264029Y3759075D01*
X7023102Y2D01*
X7023102Y1524002D02*
G01*
X6129428Y1524002D01*
X3391207Y4262224D01*
X3391207Y4361309D01*
X3325853Y4426663D01*
X3131771Y4426663D01*
X3010029Y4304921D01*
X4025775Y4304921D02*
G01*
X5917694Y2413002D01*
X7062167Y2413002D01*
X7142279Y2332890D01*
X7142279Y1897179D01*
X7023102Y1778002D01*
X3517775Y4305175D02*
G01*
X5790948Y2032002D01*
X7023102Y2032002D01*
X3771775Y4305175D02*
G01*
X5790948Y2286002D01*
X7023102Y2286002D01*
X2565402Y-508048D02*
G01*
X2565402Y-3035297D01*
X2324102Y-3276597D01*
X10769602Y-1841497D02*
G01*
X10897491Y-1713608D01*
X10897491Y-661769D01*
X9600719Y635002D01*
X9527847Y635002D01*
X9444865Y717984D01*
X9444865Y1151765D01*
X9563102Y1270002D01*
X12738102Y4051302D02*
G01*
X9709000Y1022200D01*
X9709000Y907900D01*
X9563102Y762002D01*
X9563102Y2794002D02*
G01*
X7266485Y497385D01*
X7266485Y78132D01*
X6559704Y-628647D01*
X4273552Y-628647D01*
X3759202Y-1142997D01*
X9563102Y2286002D02*
G01*
X9403895Y2126795D01*
X9403895Y-2280892D01*
X11339400Y-4216397D01*
X11569702Y-4216397D01*
X2756029Y4304921D02*
G01*
X2467307Y4016199D01*
X2467307Y-391055D01*
X2070102Y-788261D01*
X2070102Y-3276597D01*
X12738102Y2451102D02*
G01*
X12861013Y2574013D01*
X12861013Y4182391D01*
X12738102Y4305302D01*
X12763502Y698502D02*
G01*
X12860200Y795200D01*
X12860200Y2329004D01*
X12738102Y2451102D01*
X12763502Y698502D02*
G01*
X12882552Y579452D01*
X12882552Y-2095497D01*
X10769602Y-2095497D02*
G01*
X12882552Y-2095497D01*
X12882552Y-2095497D02*
G01*
X12954002Y-2166947D01*
X12954002Y-3454397D01*
X9563102Y2540002D02*
G01*
X8349592Y1326492D01*
X8349592Y1082880D01*
X6563565Y-703145D01*
X5215054Y-703145D01*
X3759202Y-2158997D01*
X12331702Y-4216397D02*
G01*
X12331702Y-3594097D01*
X12192002Y-3454397D01*
X12192002Y-3454397D02*
G01*
X11531602Y-3454397D01*
X11518902Y-3441697D01*
X2502029Y4187471D02*
G01*
X2384071Y4069514D01*
X2384071Y138864D01*
X1965073Y-280134D01*
X2502029Y4305429D02*
G01*
X2502029Y4187471D01*
X1965073Y-394078D02*
G01*
X1965073Y-280134D01*
X12738102Y1943102D02*
G01*
X12619713Y2061491D01*
X12619713Y3678913D01*
X12738102Y3797302D01*
X10654032Y-1966008D02*
G01*
X10654032Y-3338827D01*
X10756902Y-3441697D01*
X10654032Y-1966008D02*
G01*
X10654032Y-1703067D01*
X10769602Y-1587497D01*
X12763502Y190502D02*
G01*
X12639855Y190502D01*
X12738102Y1943102D02*
G01*
X12639855Y1844855D01*
X12639855Y190502D01*
X12639855Y190502D02*
G01*
X12639855Y-134617D01*
X10808464Y-1966008D01*
X10654032Y-1966008D01*
X5575302Y-1904997D02*
G01*
X5713427Y-1766872D01*
X5713427Y-1001722D01*
X5588002Y-876297D01*
X1965073Y-394078D02*
G01*
X1965073Y-508048D01*
D11*
G01*
X14146667Y-3530610D03*
G01*
X13996553Y-3530610D03*
D12*
G01*
X5613400Y190500D03*
G01*
X5613400Y-63500D03*
G01*
X5588000Y-876300D03*
G01*
X5588000Y-1130300D03*
G01*
X5575300Y-1905000D03*
G01*
X5575300Y-2159000D03*
D13*
G01*
X3759200Y-2159000D03*
G01*
X4521200Y-2159000D03*
G01*
X10756900Y-3441700D03*
G01*
X11518900Y-3441700D03*
G01*
X12192000Y-3454400D03*
G01*
X12954000Y-3454400D03*
G01*
X11569700Y-4216400D03*
G01*
X12331700Y-4216400D03*
G01*
X3733800Y-88900D03*
G01*
X4495800Y-88900D03*
G01*
X3759200Y-1143000D03*
G01*
X4521200Y-1143000D03*
D14*
G01*
X9563100Y0D03*
G01*
X9563100Y254000D03*
G01*
X9563100Y508000D03*
G01*
X9563100Y762000D03*
G01*
X9563100Y1016000D03*
G01*
X9563100Y1270000D03*
G01*
X9563100Y1524000D03*
G01*
X9563100Y1778000D03*
G01*
X9563100Y2032000D03*
G01*
X9563100Y2286000D03*
G01*
X9563100Y2540000D03*
G01*
X9563100Y2794000D03*
G01*
X9563100Y3048000D03*
G01*
X9563100Y3302000D03*
G01*
X9563100Y3556000D03*
G01*
X7023100Y3556000D03*
G01*
X7023100Y3302000D03*
G01*
X7023100Y3048000D03*
G01*
X7023100Y2794000D03*
G01*
X7023100Y2540000D03*
G01*
X7023100Y2286000D03*
G01*
X7023100Y2032000D03*
G01*
X7023100Y1778000D03*
G01*
X7023100Y1524000D03*
G01*
X7023100Y1270000D03*
G01*
X7023100Y1016000D03*
G01*
X7023100Y762000D03*
G01*
X7023100Y508000D03*
G01*
X7023100Y254000D03*
G01*
X7023100Y0D03*
D15*
G01*
X15163800Y-1841500D03*
G01*
X15163800Y-1343660D03*
D16*
G01*
X10769600Y-1333500D03*
D17*
G01*
X10769600Y-1587500D03*
G01*
X10769600Y-1841500D03*
G01*
X10769600Y-2095500D03*
D15*
G01*
X15100300Y4279900D03*
G01*
X15100300Y3771900D03*
D18*
G01*
X12738100Y4305300D03*
G01*
X12738100Y4051300D03*
G01*
X12738100Y3797300D03*
D15*
G01*
X15100300Y2425700D03*
G01*
X15100300Y1917700D03*
D18*
G01*
X12738100Y2451100D03*
G01*
X12738100Y2197100D03*
G01*
X12738100Y1943100D03*
D15*
G01*
X15125700Y673100D03*
G01*
X15125700Y165100D03*
D18*
G01*
X12763500Y698500D03*
G01*
X12763500Y444500D03*
G01*
X12763500Y190500D03*
D19*
G01*
X1816100Y-3276600D03*
G01*
X2070100Y-3276600D03*
G01*
X2324100Y-3276600D03*
D20*
G01*
X15252700Y-3429000D03*
G01*
X15252700Y-4191000D03*
D21*
G01*
X2565400Y-508050D03*
G01*
X1965071Y-508050D03*
D22*
G01*
X2325382Y-988009D03*
D23*
G01*
X2502027Y4305427D03*
D18*
G01*
X4025772Y4304919D03*
G01*
X3771772Y4305172D03*
G01*
X3517772Y4305172D03*
G01*
X3264027Y4305680D03*
G01*
X3010027Y4304919D03*
G01*
X2756027Y4304919D03*
M02*
