G04 Layer: TopSolderMaskLayer*
G04 EasyEDA v6.5.42, 2024-05-04 09:00:08*
G04 1b880a871dba45ccba3123794a0e531b,10*
G04 Gerber Generator version 0.2*
G04 Scale: 100 percent, Rotated: No, Reflected: No *
G04 Dimensions in millimeters *
G04 leading zeros omitted , absolute positions ,4 integer and 5 decimal *
%FSLAX45Y45*%
%MOMM*%

%AMMACRO1*1,1,$1,$2,$3*1,1,$1,$4,$5*1,1,$1,0-$2,0-$3*1,1,$1,0-$4,0-$5*20,1,$1,$2,$3,$4,$5,0*20,1,$1,$4,$5,0-$2,0-$3,0*20,1,$1,0-$2,0-$3,0-$4,0-$5,0*20,1,$1,0-$4,0-$5,$2,$3,0*4,1,4,$2,$3,$4,$5,0-$2,0-$3,0-$4,0-$5,$2,$3,0*%
%ADD10C,1.2032*%
%ADD11C,1.7526*%
%ADD12C,1.9812*%
%ADD13C,1.7016*%
%ADD14C,3.2032*%
%ADD15MACRO1,0.2032X0.85X0.85X0.85X-0.85*%
%ADD16C,1.9032*%
%ADD17C,3.1016*%
%ADD18C,1.9016*%
%ADD19C,2.1016*%
%ADD20O,1.6256000000000002X2.6416*%
%ADD21MACRO1,0.1016X0.7X-1.9995X-0.7X-1.9995*%
%ADD22MACRO1,0.1016X-1.7502X-0.7X-1.7502X0.7*%
%ADD23MACRO1,0.1X-0.9X0.9X0.9X0.9*%
%ADD24C,1.9000*%

%LPD*%
D10*
G01*
X14146667Y-3530610D03*
G01*
X13996553Y-3530610D03*
D11*
G01*
X5613400Y190500D03*
G01*
X5613400Y-63500D03*
G01*
X5588000Y-876300D03*
G01*
X5588000Y-1130300D03*
G01*
X5575300Y-1905000D03*
G01*
X5575300Y-2159000D03*
D12*
G01*
X3759200Y-2159000D03*
G01*
X4521200Y-2159000D03*
G01*
X10756900Y-3441700D03*
G01*
X11518900Y-3441700D03*
G01*
X12192000Y-3454400D03*
G01*
X12954000Y-3454400D03*
G01*
X11569700Y-4216400D03*
G01*
X12331700Y-4216400D03*
G01*
X3733800Y-88900D03*
G01*
X4495800Y-88900D03*
G01*
X3759200Y-1143000D03*
G01*
X4521200Y-1143000D03*
D13*
G01*
X9563100Y0D03*
G01*
X9563100Y254000D03*
G01*
X9563100Y508000D03*
G01*
X9563100Y762000D03*
G01*
X9563100Y1016000D03*
G01*
X9563100Y1270000D03*
G01*
X9563100Y1524000D03*
G01*
X9563100Y1778000D03*
G01*
X9563100Y2032000D03*
G01*
X9563100Y2286000D03*
G01*
X9563100Y2540000D03*
G01*
X9563100Y2794000D03*
G01*
X9563100Y3048000D03*
G01*
X9563100Y3302000D03*
G01*
X9563100Y3556000D03*
G01*
X7023100Y3556000D03*
G01*
X7023100Y3302000D03*
G01*
X7023100Y3048000D03*
G01*
X7023100Y2794000D03*
G01*
X7023100Y2540000D03*
G01*
X7023100Y2286000D03*
G01*
X7023100Y2032000D03*
G01*
X7023100Y1778000D03*
G01*
X7023100Y1524000D03*
G01*
X7023100Y1270000D03*
G01*
X7023100Y1016000D03*
G01*
X7023100Y762000D03*
G01*
X7023100Y508000D03*
G01*
X7023100Y254000D03*
G01*
X7023100Y0D03*
D14*
G01*
X15163800Y-1841500D03*
G01*
X15163800Y-1343660D03*
D15*
G01*
X10769598Y-1333500D03*
D16*
G01*
X10769600Y-1587500D03*
G01*
X10769600Y-1841500D03*
G01*
X10769600Y-2095500D03*
D17*
G01*
X15100300Y4279900D03*
G01*
X15100300Y3771900D03*
D18*
G01*
X12738100Y4305300D03*
G01*
X12738100Y4051300D03*
G01*
X12738100Y3797300D03*
D17*
G01*
X15100300Y2425700D03*
G01*
X15100300Y1917700D03*
D18*
G01*
X12738100Y2451100D03*
G01*
X12738100Y2197100D03*
G01*
X12738100Y1943100D03*
D17*
G01*
X15125700Y673100D03*
G01*
X15125700Y165100D03*
D18*
G01*
X12763500Y698500D03*
G01*
X12763500Y444500D03*
G01*
X12763500Y190500D03*
D19*
G01*
X1816100Y-3276600D03*
G01*
X2070100Y-3276600D03*
G01*
X2324100Y-3276600D03*
D20*
G01*
X15252700Y-3429000D03*
G01*
X15252700Y-4191000D03*
D21*
G01*
X2565400Y-508050D03*
G01*
X1965071Y-508050D03*
D22*
G01*
X2325382Y-988009D03*
D23*
G01*
X2502027Y4305426D03*
D24*
G01*
X4025772Y4304919D03*
G01*
X3771772Y4305172D03*
G01*
X3517772Y4305172D03*
G01*
X3264027Y4305680D03*
G01*
X3010027Y4304919D03*
G01*
X2756027Y4304919D03*
M02*
